<svg width="25" height="25" viewBox="0 0 25 25" fill="none" xmlns="http://www.w3.org/2000/svg">
<g clip-path="url(#clip0)">
<path d="M11.458 23.942C5.14053 23.942 0 18.8017 0 12.4842C0 6.16665 5.14053 1.02612 11.458 1.02612C13.6549 1.02612 15.7922 1.6521 17.639 2.83748C18.0016 3.07093 18.1078 3.55423 17.8744 3.91776C17.6401 4.28129 17.1578 4.38638 16.7943 4.15312C15.2005 3.1291 13.3548 2.58857 11.458 2.58857C6.00186 2.58857 1.56245 7.02798 1.56245 12.4842C1.56245 17.9402 6.00186 22.3796 11.458 22.3796C16.914 22.3796 21.3534 17.9402 21.3534 12.4842C21.3534 12.158 21.3378 11.8351 21.3077 11.5175C21.2661 11.0873 21.5806 10.706 22.0097 10.6644C22.441 10.6247 22.8211 10.9374 22.8629 11.3665C22.8981 11.7342 22.9159 12.1071 22.9159 12.4842C22.9159 18.8017 17.7756 23.942 11.458 23.942Z" fill="#2262AA"/>
<path d="M12.7592 15.0881C12.5593 15.0881 12.3593 15.012 12.2073 14.859L7.51989 10.1717C7.21472 9.86633 7.21472 9.37157 7.51989 9.06641C7.82506 8.76124 8.31981 8.76124 8.62498 9.06641L12.7604 13.2018L23.6651 2.29687C23.9705 1.9917 24.4652 1.9917 24.7704 2.29687C25.0756 2.60203 25.0756 3.09678 24.7704 3.40195L13.3123 14.86C13.1592 15.012 12.9593 15.0881 12.7592 15.0881Z" fill="#2262AA"/>
</g>
<defs>
<clipPath id="clip0">
<rect width="25" height="25" fill="white"/>
</clipPath>
</defs>
</svg>
