<svg width="11" height="11" viewBox="0 0 11 11" fill="none" xmlns="http://www.w3.org/2000/svg">
<g clip-path="url(#clip0)">
<path d="M2.65528 5.19827L7.7431 0.124514C7.9098 -0.0416242 8.17968 -0.0413449 8.3461 0.125373C8.51239 0.29207 8.51196 0.562106 8.34524 0.728373L3.56026 5.50014L8.34541 10.2719C8.51211 10.4382 8.51254 10.708 8.34627 10.8748C8.26285 10.9583 8.15356 11.0001 8.04427 11.0001C7.93525 11.0001 7.82639 10.9586 7.74312 10.8756L2.65528 5.80199C2.57499 5.72212 2.52994 5.61341 2.52994 5.50014C2.52994 5.38688 2.57512 5.27829 2.65528 5.19827Z" fill="#263C49"/>
</g>
<defs>
<clipPath id="clip0">
<rect width="11" height="11" fill="white" transform="matrix(-1 0 0 1 11 0)"/>
</clipPath>
</defs>
</svg>
