<svg width="80" height="80" viewBox="0 0 80 80" fill="none" xmlns="http://www.w3.org/2000/svg">
<g filter="url(#filter0_d)">
<circle r="25" transform="matrix(-1 0 0 1 40 35)" fill="white"/>
</g>
<g clip-path="url(#clip0)">
<path d="M45.414 34.9786L36.6259 26.2149C36.338 25.9279 35.8718 25.9284 35.5844 26.2163C35.2971 26.5043 35.2979 26.9707 35.5859 27.2579L43.8508 35.5L35.5856 43.7421C35.2976 44.0294 35.2969 44.4955 35.5841 44.7835C35.7282 44.9278 35.9169 45 36.1057 45C36.294 45 36.482 44.9283 36.6259 44.7849L45.414 36.0214C45.5526 35.8834 45.6305 35.6957 45.6305 35.5C45.6305 35.3044 45.5524 35.1168 45.414 34.9786Z" fill="#263C49"/>
</g>
<defs>
<filter id="filter0_d" x="0" y="0" width="80" height="80" filterUnits="userSpaceOnUse" color-interpolation-filters="sRGB">
<feFlood flood-opacity="0" result="BackgroundImageFix"/>
<feColorMatrix in="SourceAlpha" type="matrix" values="0 0 0 0 0 0 0 0 0 0 0 0 0 0 0 0 0 0 127 0"/>
<feOffset dy="5"/>
<feGaussianBlur stdDeviation="7.5"/>
<feColorMatrix type="matrix" values="0 0 0 0 0.558333 0 0 0 0 0.863714 0 0 0 0 1 0 0 0 0.5 0"/>
<feBlend mode="normal" in2="BackgroundImageFix" result="effect1_dropShadow"/>
<feBlend mode="normal" in="SourceGraphic" in2="effect1_dropShadow" result="shape"/>
</filter>
<clipPath id="clip0">
<rect width="19" height="19" fill="white" transform="translate(31 26)"/>
</clipPath>
</defs>
</svg>
