<svg width="80" height="80" viewBox="0 0 80 80" fill="none" xmlns="http://www.w3.org/2000/svg">
<g filter="url(#filter0_d)">
<circle cx="40" cy="35" r="25" fill="white"/>
</g>
<g clip-path="url(#clip0)">
<path d="M34.586 34.9786L43.3741 26.2149C43.662 25.9279 44.1282 25.9284 44.4156 26.2163C44.7029 26.5043 44.7021 26.9707 44.4141 27.2579L36.1492 35.5L44.4144 43.7421C44.7024 44.0294 44.7031 44.4955 44.4159 44.7835C44.2718 44.9278 44.0831 45 43.8943 45C43.706 45 43.518 44.9283 43.3741 44.7849L34.586 36.0214C34.4474 35.8834 34.3695 35.6957 34.3695 35.5C34.3695 35.3044 34.4476 35.1168 34.586 34.9786Z" fill="#263C49"/>
</g>
<defs>
<filter id="filter0_d" x="0" y="0" width="80" height="80" filterUnits="userSpaceOnUse" color-interpolation-filters="sRGB">
<feFlood flood-opacity="0" result="BackgroundImageFix"/>
<feColorMatrix in="SourceAlpha" type="matrix" values="0 0 0 0 0 0 0 0 0 0 0 0 0 0 0 0 0 0 127 0"/>
<feOffset dy="5"/>
<feGaussianBlur stdDeviation="7.5"/>
<feColorMatrix type="matrix" values="0 0 0 0 0.558333 0 0 0 0 0.863714 0 0 0 0 1 0 0 0 0.5 0"/>
<feBlend mode="normal" in2="BackgroundImageFix" result="effect1_dropShadow"/>
<feBlend mode="normal" in="SourceGraphic" in2="effect1_dropShadow" result="shape"/>
</filter>
<clipPath id="clip0">
<rect width="19" height="19" fill="white" transform="matrix(-1 0 0 1 49 26)"/>
</clipPath>
</defs>
</svg>
