<svg width="27" height="27" viewBox="0 0 27 27" fill="none" xmlns="http://www.w3.org/2000/svg">
<path d="M19.157 0H7.84308C3.51838 0 0 3.51838 0 7.84308V19.1569C0 23.4816 3.51838 27 7.84308 27H19.1569C23.4816 27 27 23.4816 27 19.157V7.84308C27 3.51838 23.4816 0 19.157 0ZM24.8906 19.1569C24.8906 22.3185 22.3185 24.8906 19.157 24.8906H7.84308C4.68149 24.8906 2.10938 22.3185 2.10938 19.157V7.84308C2.10938 4.68149 4.68149 2.10938 7.84308 2.10938H19.1569C22.3185 2.10938 24.8906 4.68149 24.8906 7.84308V19.1569Z" fill="white"/>
<path d="M13.5 6.22266C9.48723 6.22266 6.22266 9.48723 6.22266 13.5C6.22266 17.5128 9.48723 20.7773 13.5 20.7773C17.5128 20.7773 20.7773 17.5128 20.7773 13.5C20.7773 9.48723 17.5128 6.22266 13.5 6.22266ZM13.5 18.668C10.6504 18.668 8.33203 16.3496 8.33203 13.5C8.33203 10.6504 10.6504 8.33203 13.5 8.33203C16.3496 8.33203 18.668 10.6504 18.668 13.5C18.668 16.3496 16.3496 18.668 13.5 18.668Z" fill="white"/>
<path d="M20.8828 7.17188C21.4653 7.17188 21.9375 6.69968 21.9375 6.11719C21.9375 5.5347 21.4653 5.0625 20.8828 5.0625C20.3003 5.0625 19.8281 5.5347 19.8281 6.11719C19.8281 6.69968 20.3003 7.17188 20.8828 7.17188Z" fill="white"/>
</svg>
