<svg width="27" height="27" viewBox="0 0 27 27" fill="none" xmlns="http://www.w3.org/2000/svg">
<g clip-path="url(#clip0)">
<path d="M0.466931 12.5956L7.06956 15.8863C7.32493 16.0123 7.62643 16.0033 7.87056 15.8604L13.7476 12.4438L10.1903 15.596C10.0092 15.7569 9.90568 15.9864 9.90568 16.2283V23.9064C9.90568 24.7164 10.9396 25.0573 11.4244 24.4138L14.2786 20.6191L21.3368 24.6388C21.8318 24.9234 22.4663 24.6376 22.5811 24.0718L26.9832 2.13427C27.1148 1.47502 26.4589 0.937266 25.8492 1.18252L0.536681 11.0544C-0.142819 11.3199 -0.186694 12.2705 0.466931 12.5956ZM25.0257 3.31552L21.1568 22.5946L14.4687 18.7854C14.1042 18.5773 13.6351 18.6695 13.3763 19.0115L11.5932 21.3819V16.6074L21.2131 8.08439C21.9747 7.41052 21.0994 6.21239 20.2298 6.72314L7.41606 14.1729L2.92506 11.9353L25.0257 3.31552Z" fill="white"/>
</g>
<defs>
<clipPath id="clip0">
<rect width="27" height="27" fill="white"/>
</clipPath>
</defs>
</svg>
