<svg width="27" height="27" viewBox="0 0 27 27" fill="none" xmlns="http://www.w3.org/2000/svg">
<path fill-rule="evenodd" clip-rule="evenodd" d="M22.4536 4.5091C20.0855 2.13821 16.9362 0.831957 13.581 0.830566C6.66733 0.830566 1.04061 6.45713 1.03783 13.3726C1.0369 15.5833 1.6144 17.7413 2.71209 19.6435L0.932617 26.1431L7.58194 24.3988C9.41409 25.3982 11.4768 25.9249 13.5759 25.9255H13.5811C20.494 25.9255 26.1214 20.2985 26.124 13.3827C26.1254 10.0311 24.8219 6.87983 22.4536 4.5091ZM13.581 23.8073H13.5767C11.706 23.8065 9.8714 23.3038 8.27052 22.3541L7.89 22.128L3.94419 23.1632L4.99739 19.3161L4.74942 18.9216C3.70581 17.2618 3.15472 15.3432 3.15565 13.3734C3.15781 7.62542 7.83469 2.94901 13.5852 2.94901C16.3698 2.94993 18.9874 4.03572 20.9557 6.00631C22.9239 7.9769 24.0072 10.5962 24.0063 13.3819C24.0039 19.1304 19.3273 23.8073 13.581 23.8073ZM19.2995 15.9992C18.9862 15.8423 17.4452 15.0843 17.1579 14.9795C16.8708 14.875 16.6616 14.8229 16.4529 15.1365C16.2439 15.4501 15.6433 16.1562 15.4604 16.3652C15.2775 16.5744 15.0949 16.6007 14.7814 16.4437C14.4679 16.2869 13.4582 15.9558 12.261 14.8881C11.3294 14.0571 10.7004 13.0307 10.5175 12.7171C10.3349 12.4032 10.516 12.2499 10.655 12.0775C10.9943 11.6562 11.334 11.2145 11.4384 11.0055C11.543 10.7963 11.4907 10.6132 11.4122 10.4564C11.334 10.2996 10.7072 8.75694 10.4461 8.12923C10.1915 7.51836 9.93335 7.60086 9.74085 7.59128C9.55824 7.58216 9.34921 7.58031 9.14017 7.58031C8.9313 7.58031 8.59172 7.65864 8.30436 7.97257C8.01715 8.28635 7.20759 9.04446 7.20759 10.5871C7.20759 12.1297 8.33062 13.62 8.48728 13.8292C8.64394 14.0384 10.6973 17.204 13.8412 18.5614C14.5889 18.8846 15.1726 19.0772 15.6279 19.2217C16.3787 19.4602 17.0618 19.4265 17.6019 19.3459C18.2041 19.2558 19.456 18.5876 19.7174 17.8556C19.9785 17.1235 19.9785 16.4961 19.9 16.3652C19.8218 16.2345 19.6128 16.1562 19.2995 15.9992Z" fill="white"/>
</svg>
