<svg width="27" height="27" viewBox="0 0 27 27" fill="none" xmlns="http://www.w3.org/2000/svg">
<g clip-path="url(#clip0)">
<path d="M24.502 13.6695C24.223 12.4573 23.2315 11.5632 22.038 11.4301C19.2126 11.1144 16.3514 11.1129 13.5042 11.1144C10.6559 11.1129 7.79528 11.1144 4.96894 11.4301C3.77612 11.5634 2.78517 12.4576 2.50647 13.6695C2.10926 15.3956 2.10449 17.2798 2.10449 19.0572C2.10449 20.8345 2.10449 22.7184 2.5017 24.4446C2.78041 25.6564 3.77135 26.5506 4.96478 26.684C7.79052 26.9999 10.6511 27.0011 13.4992 26.9999C16.3475 27.0014 19.2075 26.9999 22.0342 26.684C23.227 26.5506 24.2185 25.6564 24.4972 24.4446C24.8942 22.7184 24.8962 20.8345 24.8962 19.0572C24.8959 17.2796 24.8989 15.3956 24.502 13.6695ZM8.60549 15.0073H6.9559V23.7728H5.42362V15.0073H3.80411V13.5715H8.60549V15.0073ZM12.7673 23.7731H11.389V22.9438C10.8414 23.5715 10.3215 23.8776 9.81499 23.8776C9.37103 23.8776 9.06553 23.6978 8.92767 23.3128C8.85263 23.0829 8.80618 22.719 8.80618 22.1825V16.1719H10.1833V21.7683C10.1833 22.0911 10.1833 22.2587 10.1958 22.304C10.2289 22.5177 10.3334 22.6261 10.518 22.6261C10.7943 22.6261 11.0832 22.4132 11.3887 21.9812V16.1719H12.767L12.7673 23.7731ZM17.9998 21.4917C17.9998 22.1947 17.9525 22.7012 17.8605 23.0233C17.6765 23.5888 17.3081 23.8776 16.7602 23.8776C16.2701 23.8776 15.7973 23.6055 15.3367 23.0367V23.7734H13.9595V13.5715H15.3367V16.9032C15.7815 16.3556 16.2538 16.0787 16.7602 16.0787C17.3081 16.0787 17.6767 16.3672 17.8605 16.9362C17.9531 17.242 17.9998 17.7447 17.9998 18.4643V21.4917ZM23.1978 20.2235H20.4432V21.5709C20.4432 22.2745 20.6734 22.6258 21.1468 22.6258C21.486 22.6258 21.6834 22.4415 21.762 22.0735C21.7748 21.9987 21.793 21.6927 21.793 21.1403H23.1981V21.3413C23.1981 21.7853 23.1811 22.0911 23.1686 22.2286C23.1225 22.5335 23.0141 22.8101 22.8471 23.0537C22.4656 23.6058 21.9005 23.8779 21.1811 23.8779C20.4605 23.8779 19.912 23.6186 19.5139 23.0996C19.2218 22.719 19.0718 22.1199 19.0718 21.3121V18.6498C19.0718 17.8373 19.2049 17.2429 19.4976 16.8588C19.8954 16.3386 20.4435 16.0796 21.1471 16.0796C21.8382 16.0796 22.3861 16.3386 22.772 16.8588C23.0605 17.2429 23.1984 17.8373 23.1984 18.6498V20.2235H23.1978Z" fill="white"/>
<path d="M21.1345 17.3184C20.6741 17.3184 20.4434 17.67 20.4434 18.3727V19.076H21.8205V18.3727C21.8202 17.67 21.59 17.3184 21.1345 17.3184Z" fill="white"/>
<path d="M16.0234 17.3184C15.7965 17.3184 15.5666 17.4256 15.3364 17.6533V22.2862C15.5663 22.5167 15.7965 22.6256 16.0234 22.6256C16.4206 22.6256 16.6225 22.2862 16.6225 21.5998V18.3555C16.6225 17.67 16.4206 17.3184 16.0234 17.3184Z" fill="white"/>
<path d="M16.7926 10.4138C17.3003 10.4138 17.8285 10.1053 18.3826 9.47048V10.3084H19.7747V2.62646H18.3826V8.4977C18.0741 8.93362 17.7817 9.1492 17.5033 9.1492C17.3169 9.1492 17.2074 9.03903 17.177 8.82315C17.16 8.77759 17.16 8.60817 17.16 8.28212V2.62646H15.7725V8.70077C15.7725 9.24329 15.8189 9.61043 15.8957 9.84298C16.0357 10.2322 16.3445 10.4138 16.7926 10.4138Z" fill="white"/>
<path d="M7.10211 6.13326V10.3082H8.6457V6.13326L10.5025 0H8.94167L7.8885 4.04805L6.79274 0H5.16846C5.49391 0.955512 5.83246 1.91579 6.15791 2.87219C6.65309 4.30978 6.96216 5.39363 7.10211 6.13326Z" fill="white"/>
<path d="M12.5715 10.4139C13.2688 10.4139 13.8107 10.1516 14.1952 9.62753C14.4873 9.24312 14.6272 8.63748 14.6272 7.82102V5.13105C14.6272 4.30983 14.4876 3.70955 14.1952 3.32156C13.8107 2.79602 13.2691 2.53369 12.5715 2.53369C11.8777 2.53369 11.3361 2.79602 10.9508 3.32156C10.6551 3.70955 10.5151 4.30983 10.5151 5.13105V7.82102C10.5151 8.63748 10.6551 9.24312 10.9508 9.62753C11.3358 10.1516 11.8777 10.4139 12.5715 10.4139ZM11.9072 4.85205C11.9072 4.1413 12.1227 3.78696 12.5715 3.78696C13.0202 3.78696 13.2352 4.141 13.2352 4.85205V8.08335C13.2352 8.7941 13.0202 9.14962 12.5715 9.14962C12.1227 9.14962 11.9072 8.7941 11.9072 8.08335V4.85205Z" fill="white"/>
</g>
<defs>
<clipPath id="clip0">
<rect width="27" height="27" fill="white"/>
</clipPath>
</defs>
</svg>
