<svg width="18" height="18" viewBox="0 0 18 18" fill="none" xmlns="http://www.w3.org/2000/svg">
<g clip-path="url(#clip0)">
<path d="M16.3125 2.24998H1.68751C0.75696 2.24998 0 3.00695 0 3.9375V14.0625C0 14.9931 0.75696 15.75 1.68751 15.75H16.3125C17.243 15.75 18 14.9931 18 14.0625V3.9375C18 3.00695 17.243 2.24998 16.3125 2.24998ZM16.3125 3.37498C16.3889 3.37498 16.4616 3.39084 16.5281 3.41853L9 9.94318L1.47188 3.41853C1.53834 3.39087 1.61105 3.37498 1.68747 3.37498H16.3125ZM16.3125 14.625H1.68751C1.37715 14.625 1.125 14.3729 1.125 14.0625V4.6071L8.6314 11.1127C8.73743 11.2044 8.86872 11.25 9 11.25C9.13128 11.25 9.26256 11.2044 9.3686 11.1127L16.875 4.6071V14.0625C16.875 14.3729 16.6228 14.625 16.3125 14.625Z" fill="#263C49"/>
</g>
<defs>
<clipPath id="clip0">
<rect width="18" height="18" fill="white"/>
</clipPath>
</defs>
</svg>
