<svg width="18" height="18" viewBox="0 0 18 18" fill="none" xmlns="http://www.w3.org/2000/svg">
<g clip-path="url(#clip0)">
<path d="M17.4818 13.4937L14.8802 10.891C14.5309 10.5434 14.063 10.3519 13.5631 10.3519C13.0428 10.3519 12.5515 10.5567 12.1801 10.9284L11.1674 11.9409C10.3805 11.5035 9.33459 10.9019 8.24869 9.81597C7.16406 8.73097 6.56239 7.68811 6.12276 6.89694L7.13643 5.88401C7.89007 5.12881 7.90549 3.91722 7.17091 3.18331L4.56983 0.582154C4.22142 0.232773 3.75357 0.0403595 3.25235 0.0403595C2.7437 0.0403595 2.26251 0.236198 1.89325 0.592654C1.66986 0.772557 0.548817 1.76217 0.131004 3.80306C-0.45398 6.6597 0.890081 9.40821 4.77021 13.2899C9.10464 17.623 12.8049 17.9598 13.8358 17.9598C14.0504 17.9598 14.1799 17.9465 14.2145 17.9425C16.2359 17.7056 16.9597 16.8078 17.4882 16.1523C18.1729 15.3028 18.1705 14.185 17.4818 13.4937ZM16.6186 15.4513C16.1218 16.0674 15.6527 16.6492 14.0845 16.8331C14.0837 16.8332 13.9979 16.8428 13.8358 16.8428C12.9135 16.8428 9.59081 16.5296 5.56004 12.5001C1.98186 8.9204 0.725965 6.46557 1.22524 4.02705C1.58966 2.24693 2.55716 1.49031 2.59477 1.46157L2.62813 1.43692L2.65739 1.40758C2.8189 1.24622 3.03016 1.15731 3.25228 1.15731C3.45452 1.15731 3.64157 1.23311 3.77948 1.37146L6.38115 3.97321C6.68049 4.27226 6.66456 4.77548 6.34608 5.09463L5.19972 6.24002L5.18088 6.25976C4.88213 6.58881 4.91728 7.0335 5.08184 7.32309C5.55669 8.18001 6.20713 9.35363 7.45871 10.6056C8.70612 11.853 9.87802 12.5029 10.7326 12.9769C10.8181 13.0249 10.9947 13.1055 11.2158 13.1055C11.4769 13.1055 11.7166 12.995 11.894 12.7935L12.9699 11.718C13.1305 11.5573 13.3411 11.4688 13.5629 11.4688C13.7656 11.4688 13.9536 11.5448 14.0912 11.6816L16.6911 14.2827C17.0214 14.6141 16.885 15.1208 16.6186 15.4513Z" fill="#263C49"/>
<path d="M10.9048 2.77696C11.8644 2.88739 12.9943 3.46865 13.7833 4.25773C14.5797 5.05412 15.1624 6.19549 15.2676 7.16552C15.2987 7.45168 15.5407 7.66376 15.8221 7.66376C15.8423 7.66376 15.8627 7.66264 15.8831 7.66048C16.1897 7.62719 16.4113 7.35168 16.378 7.04504C16.245 5.81886 15.5533 4.44821 14.5732 3.46798C13.6022 2.4969 12.2455 1.807 11.0325 1.66738C10.7263 1.63186 10.4492 1.85197 10.4139 2.15832C10.3786 2.46466 10.5983 2.74166 10.9048 2.77696Z" fill="#263C49"/>
<path d="M10.3824 5.11645C10.9014 5.17624 11.6197 5.56122 12.0902 6.03175C12.5648 6.50638 12.9505 7.2315 13.0073 7.75609C13.0384 8.04233 13.2804 8.2544 13.5619 8.2544C13.582 8.2544 13.6023 8.25328 13.6227 8.25112C13.9293 8.21784 14.151 7.94233 14.1177 7.63569C14.0206 6.74004 13.426 5.78803 12.8799 5.24192C12.3387 4.70064 11.396 4.10888 10.5101 4.00679C10.2034 3.97113 9.9267 4.19131 9.8914 4.49766C9.85618 4.80407 10.076 5.08115 10.3824 5.11645Z" fill="#263C49"/>
</g>
<defs>
<clipPath id="clip0">
<rect width="18" height="18" fill="white"/>
</clipPath>
</defs>
</svg>
