<svg width="27" height="27" viewBox="0 0 27 27" fill="none" xmlns="http://www.w3.org/2000/svg">
<g clip-path="url(#clip0)">
<path d="M24.502 13.6694C24.223 12.4573 23.2315 11.5631 22.038 11.43C19.2126 11.1144 16.3514 11.1129 13.5042 11.1144C10.6559 11.1129 7.79528 11.1144 4.96894 11.43C3.77612 11.5634 2.78517 12.4576 2.50647 13.6694C2.10926 15.3956 2.10449 17.2798 2.10449 19.0571C2.10449 20.8344 2.10449 22.7184 2.5017 24.4445C2.78041 25.6564 3.77135 26.5505 4.96478 26.6839C7.79052 26.9999 10.6511 27.0011 13.4992 26.9999C16.3475 27.0014 19.2075 26.9999 22.0342 26.6839C23.227 26.5505 24.2185 25.6564 24.4972 24.4445C24.8942 22.7184 24.8962 20.8344 24.8962 19.0571C24.8959 17.2795 24.8989 15.3956 24.502 13.6694ZM8.60549 15.0073H6.9559V23.7727H5.42362V15.0073H3.80411V13.5715H8.60549V15.0073ZM12.7673 23.773H11.389V22.9438C10.8414 23.5715 10.3215 23.8776 9.81499 23.8776C9.37103 23.8776 9.06553 23.6977 8.92767 23.3127C8.85263 23.0828 8.80618 22.719 8.80618 22.1824V16.1718H10.1833V21.7682C10.1833 22.091 10.1833 22.2586 10.1958 22.3039C10.2289 22.5177 10.3334 22.6261 10.518 22.6261C10.7943 22.6261 11.0832 22.4132 11.3887 21.9811V16.1718H12.767L12.7673 23.773ZM17.9998 21.4916C17.9998 22.1946 17.9525 22.7011 17.8605 23.0233C17.6765 23.5887 17.3081 23.8776 16.7602 23.8776C16.2701 23.8776 15.7973 23.6054 15.3367 23.0367V23.7733H13.9595V13.5715H15.3367V16.9031C15.7815 16.3555 16.2538 16.0786 16.7602 16.0786C17.3081 16.0786 17.6767 16.3672 17.8605 16.9362C17.9531 17.242 17.9998 17.7446 17.9998 18.4643V21.4916ZM23.1978 20.2234H20.4432V21.5708C20.4432 22.2744 20.6734 22.6258 21.1468 22.6258C21.486 22.6258 21.6834 22.4415 21.762 22.0734C21.7748 21.9987 21.793 21.6926 21.793 21.1402H23.1981V21.3412C23.1981 21.7852 23.1811 22.091 23.1686 22.2286C23.1225 22.5335 23.0141 22.8101 22.8471 23.0537C22.4656 23.6057 21.9005 23.8779 21.1811 23.8779C20.4605 23.8779 19.912 23.6185 19.5139 23.0995C19.2218 22.719 19.0718 22.1199 19.0718 21.3121V18.6498C19.0718 17.8372 19.2049 17.2429 19.4976 16.8588C19.8954 16.3386 20.4435 16.0795 21.1471 16.0795C21.8382 16.0795 22.3861 16.3386 22.772 16.8588C23.0605 17.2429 23.1984 17.8372 23.1984 18.6498V20.2234H23.1978Z" fill="#2262AA"/>
<path d="M21.1345 17.3185C20.6741 17.3185 20.4434 17.6702 20.4434 18.3729V19.0762H21.8205V18.3729C21.8202 17.6702 21.59 17.3185 21.1345 17.3185Z" fill="#2262AA"/>
<path d="M16.0229 17.3185C15.796 17.3185 15.5661 17.4257 15.3359 17.6535V22.2864C15.5658 22.5168 15.796 22.6258 16.0229 22.6258C16.4201 22.6258 16.622 22.2864 16.622 21.6V18.3556C16.622 17.6702 16.4201 17.3185 16.0229 17.3185Z" fill="#2262AA"/>
<path d="M16.7926 10.4137C17.3003 10.4137 17.8285 10.1052 18.3826 9.47039V10.3083H19.7747V2.62637H18.3826V8.49761C18.0741 8.93353 17.7817 9.14911 17.5033 9.14911C17.3169 9.14911 17.2074 9.03894 17.177 8.82306C17.16 8.7775 17.16 8.60808 17.16 8.28203V2.62637H15.7725V8.70068C15.7725 9.2432 15.8189 9.61034 15.8957 9.84289C16.0357 10.2321 16.3445 10.4137 16.7926 10.4137Z" fill="#2262AA"/>
<path d="M7.10162 6.13326V10.3082H8.64521V6.13326L10.502 0H8.94119L7.88801 4.04805L6.79225 0H5.16797C5.49342 0.955512 5.83197 1.91579 6.15743 2.87219C6.6526 4.30978 6.96168 5.39363 7.10162 6.13326Z" fill="#2262AA"/>
<path d="M12.571 10.4137C13.2683 10.4137 13.8103 10.1513 14.1947 9.62729C14.4868 9.24288 14.6267 8.63723 14.6267 7.82078V5.13081C14.6267 4.30959 14.4871 3.7093 14.1947 3.32132C13.8103 2.79577 13.2686 2.53345 12.571 2.53345C11.8772 2.53345 11.3356 2.79577 10.9503 3.32132C10.6546 3.7093 10.5146 4.30959 10.5146 5.13081V7.82078C10.5146 8.63723 10.6546 9.24288 10.9503 9.62729C11.3353 10.1513 11.8772 10.4137 12.571 10.4137ZM11.9067 4.85181C11.9067 4.14105 12.1223 3.78672 12.571 3.78672C13.0197 3.78672 13.2347 4.14076 13.2347 4.85181V8.0831C13.2347 8.79386 13.0197 9.14938 12.571 9.14938C12.1223 9.14938 11.9067 8.79386 11.9067 8.0831V4.85181Z" fill="#2262AA"/>
</g>
<defs>
<clipPath id="clip0">
<rect width="27" height="27" fill="white"/>
</clipPath>
</defs>
</svg>
