<svg width="27" height="27" viewBox="0 0 27 27" fill="none" xmlns="http://www.w3.org/2000/svg">
<path d="M23.8359 0H3.16406C1.4194 0 0 1.4194 0 3.16406V23.8359C0 25.5806 1.4194 27 3.16406 27H23.8359C25.5806 27 27 25.5806 27 23.8359V3.16406C27 1.4194 25.5806 0 23.8359 0ZM24.8906 23.8359C24.8906 24.4175 24.4175 24.8906 23.8359 24.8906H17.8242V16.2949H21.0827L21.6211 13.0254H17.8242V10.7578C17.8242 9.86265 18.5111 9.17578 19.4062 9.17578H21.5684V5.90625H19.4062C16.7209 5.90625 14.5558 8.08154 14.5558 10.767V13.0254H11.3906V16.2949H14.5558V24.8906H3.16406C2.58251 24.8906 2.10938 24.4175 2.10938 23.8359V3.16406C2.10938 2.58251 2.58251 2.10938 3.16406 2.10938H23.8359C24.4175 2.10938 24.8906 2.58251 24.8906 3.16406V23.8359Z" fill="#2262AA"/>
</svg>
