<svg width="79" height="17" viewBox="0 0 79 17" fill="none" xmlns="http://www.w3.org/2000/svg">
<path d="M22.624 3.71365H24.6642C24.834 3.71365 24.9697 3.75334 25.0679 3.83586C25.1661 3.91838 25.2272 4.02174 25.2538 4.14395L25.7957 7.84959C25.8434 8.16311 25.8834 8.46863 25.9154 8.76872C25.9471 9.06882 25.9739 9.37148 25.995 9.67443C26.0907 9.37691 26.1943 9.07681 26.3031 8.77643C26.4119 8.47634 26.5341 8.16825 26.6723 7.84931L28.1225 4.14366C28.1811 4.02146 28.2687 3.91781 28.3855 3.83557C28.5023 3.75306 28.6325 3.71337 28.7761 3.71337H30.7366L26.7203 11.9773H24.6325L22.6243 3.71337L22.624 3.71365ZM33.956 3.71365L32.9677 11.9775H30.5293L31.5175 3.71365H33.956ZM34.4179 1.45052C34.4179 1.64697 34.3757 1.83028 34.2906 2.00303C34.2055 2.17549 34.0939 2.32711 33.956 2.45731C33.8178 2.58751 33.6613 2.69087 33.4831 2.76797C33.3052 2.84506 33.1219 2.88475 32.9357 2.88475C32.7499 2.88475 32.572 2.84506 32.4018 2.76797C32.2319 2.69087 32.0831 2.58723 31.9529 2.45731C31.8227 2.32711 31.7165 2.17577 31.6369 2.00303C31.5572 1.83028 31.5172 1.64697 31.5172 1.45052C31.5172 1.25379 31.5572 1.06791 31.6369 0.89259C31.7165 0.717273 31.8256 0.563086 31.9609 0.430313C32.0963 0.29754 32.2479 0.191322 32.4178 0.114228C32.5877 0.0371345 32.7656 1.52588e-05 32.9517 1.52588e-05C33.143 1.52588e-05 33.3264 0.0371345 33.5017 0.111659C33.677 0.186183 33.8337 0.289545 33.9691 0.422318C34.1047 0.555091 34.2135 0.709278 34.296 0.884595C34.3783 1.05991 34.4182 1.24836 34.4182 1.45052H34.4179ZM40.2594 5.45083C40.1848 5.54649 40.1157 5.61558 40.0521 5.65813C39.9884 5.70039 39.9033 5.7218 39.7971 5.7218C39.6909 5.7218 39.5872 5.69782 39.4836 5.65013C39.3802 5.60245 39.2686 5.54649 39.1489 5.48538C39.0293 5.42428 38.894 5.37117 38.7423 5.3232C38.591 5.27552 38.4157 5.25153 38.219 5.25153C37.8523 5.25153 37.5919 5.32063 37.4355 5.4614C37.2787 5.60216 37.199 5.78548 37.199 6.00876C37.199 6.1521 37.2441 6.27431 37.3318 6.37539C37.4195 6.47647 37.5337 6.56669 37.677 6.64636C37.8206 6.72602 37.9851 6.79769 38.1684 6.86422C38.3517 6.93075 38.5376 7.00499 38.7289 7.08722C38.9202 7.16974 39.1087 7.26511 39.292 7.37132C39.4753 7.47754 39.6372 7.60775 39.7808 7.76193C39.9244 7.91584 40.0412 8.09915 40.1289 8.31187C40.2165 8.52431 40.2591 8.77672 40.2591 9.06882C40.2591 9.48312 40.1766 9.87373 40.0121 10.2429C39.8476 10.6121 39.6109 10.9336 39.3028 11.2072C38.9947 11.4807 38.6227 11.6986 38.1844 11.8605C37.7461 12.0227 37.2521 12.1049 36.7048 12.1049C36.4444 12.1049 36.1868 12.0783 35.9318 12.0252C35.6769 11.9721 35.4379 11.9004 35.212 11.8099C34.9862 11.7197 34.7791 11.6106 34.593 11.4858C34.4071 11.3611 34.2555 11.228 34.1387 11.0847L34.7443 10.1761C34.8188 10.0699 34.9062 9.9848 35.0047 9.9237C35.1029 9.8626 35.2226 9.83347 35.3659 9.83347C35.4987 9.83347 35.6129 9.86517 35.7086 9.92913C35.8042 9.9928 35.9079 10.0619 36.0192 10.1364C36.1309 10.2107 36.2636 10.2798 36.4178 10.3434C36.5717 10.4071 36.7736 10.4391 37.0234 10.4391C37.3741 10.4391 37.6345 10.3594 37.8044 10.2027C37.9743 10.0459 38.0593 9.86288 38.0593 9.65016C38.0593 9.48541 38.0168 9.35007 37.9291 9.24385C37.8415 9.13763 37.7244 9.04455 37.5811 8.96745C37.4377 8.89036 37.2756 8.82126 37.0951 8.76015C36.9144 8.69905 36.7285 8.63252 36.5372 8.55828C36.3459 8.48405 36.16 8.39639 35.9792 8.29788C35.7985 8.19965 35.6366 8.07745 35.4933 7.92868C35.3496 7.77992 35.2354 7.59661 35.1478 7.37875C35.0601 7.16089 35.015 6.89791 35.015 6.58982C35.015 6.20721 35.0867 5.83544 35.2277 5.47425C35.3685 5.11305 35.5784 4.79154 35.8573 4.51257C36.1363 4.23361 36.4815 4.01061 36.8958 3.84071C37.3101 3.67082 37.7935 3.58573 38.346 3.58573C38.8985 3.58573 39.3925 3.68139 39.8256 3.87269C40.2585 4.064 40.6146 4.29757 40.8961 4.57396L40.2585 5.45055L40.2594 5.45083ZM48.029 11.9775H46.7061C46.5522 11.9775 46.4246 11.9561 46.3209 11.9164C46.2173 11.8767 46.1351 11.8233 46.074 11.7542C46.0129 11.6852 45.9706 11.6029 45.9463 11.5073C45.9223 11.4116 45.9092 11.308 45.9092 11.1966V10.607C45.5691 11.0744 45.1919 11.441 44.7776 11.7066C44.3633 11.9724 43.9065 12.1052 43.4068 12.1052C43.1093 12.1052 42.8223 12.0441 42.5462 11.9244C42.2698 11.8048 42.0254 11.6243 41.813 11.3825C41.6005 11.1406 41.4303 10.8326 41.303 10.4582C41.1754 10.0836 41.1117 9.64274 41.1117 9.13278C41.1117 8.38354 41.2499 7.6717 41.5234 6.99985C41.797 6.3277 42.1796 5.74065 42.671 5.23611C43.1624 4.73129 43.7443 4.3304 44.419 4.03259C45.0937 3.73507 45.8347 3.5863 46.6425 3.5863C47.0356 3.5863 47.4339 3.61286 47.8377 3.66597C48.2414 3.71908 48.6398 3.81473 49.0329 3.95293L48.029 11.9775V11.9775ZM44.3953 10.1527C44.5761 10.1527 44.7511 10.0836 44.9213 9.94797C45.0912 9.81263 45.2533 9.62932 45.4047 9.39546C45.556 9.1619 45.6942 8.88807 45.8215 8.57456C45.9492 8.26104 46.058 7.9264 46.1482 7.57063L46.4352 5.28351H46.2918C45.8881 5.28351 45.5215 5.37374 45.1894 5.55448C44.8573 5.73522 44.5703 5.97935 44.3314 6.2903C44.0924 6.60096 43.909 6.96244 43.7788 7.37418C43.6486 7.78592 43.5821 8.22678 43.5821 8.69448C43.5821 8.96003 43.6035 9.18588 43.6458 9.37177C43.6883 9.55765 43.7466 9.70641 43.8182 9.82091C43.8899 9.93512 43.975 10.0202 44.0732 10.0733C44.1715 10.1264 44.278 10.153 44.3947 10.153L44.3953 10.1527ZM58.7073 11.9775C58.5534 11.9775 58.4258 11.9561 58.3222 11.9164C58.2185 11.8767 58.1363 11.8233 58.0752 11.7542C58.0141 11.6852 57.9715 11.6029 57.9475 11.5073C57.9236 11.4116 57.9104 11.308 57.9104 11.1966V10.5033C57.5332 11.0027 57.1161 11.3933 56.6592 11.6774C56.2024 11.9618 55.7164 12.1052 55.201 12.1052C54.8609 12.1052 54.5503 12.0441 54.2687 11.9244C53.9872 11.8048 53.7454 11.6189 53.5409 11.3639C53.3362 11.1089 53.1769 10.7823 53.0627 10.3865C52.9484 9.9908 52.8902 9.51796 52.8902 8.96545C52.8902 8.48719 52.9407 8.01977 53.0415 7.56549C53.1426 7.1112 53.2834 6.68633 53.4638 6.28801C53.6446 5.88941 53.8596 5.52279 54.1094 5.191C54.3593 4.85892 54.6354 4.57482 54.9355 4.3384C55.2356 4.10198 55.5516 3.91866 55.8866 3.78589C56.2212 3.65312 56.5667 3.58659 56.9225 3.58659C57.2626 3.58659 57.5706 3.64227 57.8442 3.75648C58.1177 3.87069 58.357 4.02231 58.564 4.20819L59.09 0.0482703H61.5124L60.0302 11.9778H58.7073V11.9775ZM56.1892 10.2244C56.3591 10.2244 56.5373 10.1607 56.7203 10.0331C56.9036 9.90571 57.0815 9.73039 57.2543 9.50711C57.427 9.28411 57.5863 9.02113 57.7351 8.72075C57.8839 8.42066 58.0115 8.09915 58.1177 7.75394L58.3727 5.74579C58.2188 5.62358 58.0486 5.53592 57.8602 5.48281C57.6714 5.4297 57.491 5.40315 57.3211 5.40315C57.0341 5.40315 56.7711 5.4988 56.5296 5.69011C56.288 5.88142 56.0779 6.13097 55.9026 6.44192C55.7272 6.75258 55.5919 7.10863 55.4934 7.50695C55.3952 7.90527 55.3446 8.31187 55.3446 8.72618C55.3446 9.25213 55.4217 9.63189 55.5756 9.86831C55.7298 10.1047 55.9343 10.2241 56.1892 10.2241V10.2244ZM68.5091 11.9775H67.1862C67.032 11.9775 66.9047 11.9561 66.8011 11.9164C66.6974 11.8767 66.6152 11.8233 66.5541 11.7542C66.493 11.6852 66.4507 11.6029 66.4267 11.5073C66.4027 11.4116 66.3896 11.308 66.3896 11.1966V10.607C66.0495 11.0744 65.6723 11.441 65.258 11.7066C64.8437 11.9724 64.3869 12.1052 63.8875 12.1052C63.59 12.1052 63.303 12.0441 63.0269 11.9244C62.7505 11.8048 62.5064 11.6243 62.2936 11.3825C62.0812 11.1406 61.911 10.8326 61.7837 10.4582C61.656 10.0836 61.5924 9.64274 61.5924 9.13278C61.5924 8.38354 61.7306 7.6717 62.0041 6.99985C62.2776 6.3277 62.6603 5.74065 63.1517 5.23611C63.6431 4.73129 64.2247 4.3304 64.8994 4.03259C65.5741 3.73507 66.3151 3.5863 67.1228 3.5863C67.516 3.5863 67.9143 3.61286 68.3184 3.66597C68.7221 3.71908 69.1204 3.81473 69.5136 3.95293L68.5094 11.9775H68.5091ZM64.8754 10.1527C65.0562 10.1527 65.2312 10.0836 65.4014 9.94797C65.5713 9.81263 65.7334 9.62932 65.8848 9.39546C66.0361 9.1619 66.1743 8.88807 66.3017 8.57456C66.4293 8.26104 66.5381 7.9264 66.6286 7.57063L66.9153 5.28351H66.7719C66.3682 5.28351 66.0016 5.37374 65.6695 5.55448C65.3374 5.73522 65.0505 5.97935 64.8115 6.2903C64.5725 6.60096 64.3892 6.96244 64.259 7.37418C64.1288 7.78592 64.0622 8.22678 64.0622 8.69448C64.0622 8.96003 64.0836 9.18588 64.1259 9.37177C64.1684 9.55765 64.227 9.70641 64.2986 9.82091C64.3703 9.93512 64.4554 10.0202 64.5536 10.0733C64.6518 10.1264 64.7581 10.153 64.8751 10.153L64.8754 10.1527ZM71.8707 16.2471C71.7062 16.5632 71.4458 16.7174 71.1057 16.7174H69.2569L72.3104 11.2366L70.2623 3.71394H72.3501C72.5254 3.71394 72.6582 3.75648 72.7458 3.84157C72.8335 3.92666 72.892 4.02745 72.9237 4.14452L73.641 7.70654C73.673 7.86073 73.7021 8.01206 73.7286 8.16339C73.7552 8.31472 73.7763 8.46891 73.7923 8.6231C73.856 8.46891 73.9251 8.31244 73.9968 8.1554C74.0684 7.99864 74.1404 7.84474 74.2146 7.69055L75.7448 4.14452C75.8085 4.02231 75.9015 3.91866 76.0238 3.83643C76.146 3.75391 76.2707 3.71422 76.3984 3.71422H78.3905L71.8704 16.2474L71.8707 16.2471Z" fill="#273671"/>
<path fill-rule="evenodd" clip-rule="evenodd" d="M9.76599 0.343517C15.1594 0.343517 19.5318 4.71588 19.5318 10.1093C19.5318 10.4491 19.5144 10.7849 19.4804 11.1158C18.9938 10.8334 18.4288 10.6718 17.826 10.6718C16.0437 10.6718 14.5912 12.0849 14.5278 13.8518C14.3745 13.8087 14.2129 13.7852 14.0458 13.7852C13.5008 13.7852 13.0133 14.0314 12.6881 14.4186C12.3532 13.7313 11.6476 13.2576 10.8313 13.2576C9.69118 13.2576 8.76691 14.1819 8.76691 15.322C8.76691 15.6207 8.83058 15.9045 8.94451 16.1609C8.75577 16.162 8.57418 16.1929 8.404 16.2485C8.11989 15.814 7.65019 15.5119 7.10768 15.4545C7.16907 15.2355 7.20219 15.0045 7.20219 14.7658C7.20219 13.3601 6.06263 12.2205 4.65695 12.2205C4.63011 12.2205 4.60356 12.2211 4.577 12.222C4.51019 11.304 3.74439 10.5801 2.80956 10.5801C2.23678 10.5801 1.72739 10.852 1.4036 11.2737C1.05724 10.8794 0.565272 10.6164 0.0116241 10.569C0.00448574 10.4165 0.000488281 10.2632 0.000488281 10.109C0.000488281 4.71531 4.37285 0.343231 9.76627 0.343231L9.76599 0.343517ZM5.39563 8.94918C4.71063 8.60969 4.15813 8.75559 3.59106 8.84896C4.12586 9.36463 4.66038 9.88002 5.19518 10.3957C6.59858 10.41 8.00225 10.4242 9.40565 10.4388C11.6111 9.83719 13.8166 9.33608 16.0223 8.63424C17.0768 8.24249 17.1262 7.34535 15.9363 7.44557C14.447 7.54094 12.9577 8.00893 11.468 8.29046C10.5195 7.79592 9.57126 7.30109 8.62272 6.80655C8.16101 6.56584 8.06193 6.57127 7.71529 6.57612C7.18991 6.58355 6.66539 6.62124 6.1403 6.64351C6.98062 7.4647 7.82065 8.28561 8.66098 9.1068C7.99255 9.30724 7.3244 9.50769 6.65597 9.70842C6.23595 9.45543 5.81565 9.20245 5.39563 8.94918V8.94918Z" fill="#10ADE4"/>
<path d="M26.2466 14.2686C26.248 14.3794 26.2089 14.4831 26.1281 14.5804C26.0476 14.6778 25.9268 14.7578 25.7672 14.8194C25.8346 14.8251 25.8977 14.8386 25.9557 14.8594C26.0139 14.8805 26.0645 14.9085 26.107 14.9442C26.1498 14.9799 26.1835 15.0242 26.2081 15.0761C26.2326 15.1278 26.2443 15.1875 26.2443 15.2549C26.2443 15.3502 26.2232 15.4448 26.1812 15.5393C26.1393 15.6338 26.0776 15.7194 25.9956 15.7951C25.9137 15.8708 25.8126 15.9319 25.6935 15.9787C25.5745 16.0255 25.4371 16.0495 25.2815 16.0495C25.1399 16.0495 25.0151 16.0284 24.9072 15.9873C24.7993 15.9459 24.7087 15.8862 24.6351 15.8085C24.5617 15.7309 24.5054 15.6361 24.4675 15.5247C24.4298 15.4133 24.4106 15.2886 24.4106 15.1498C24.4106 14.9648 24.4421 14.7909 24.5046 14.6284C24.5671 14.4659 24.6525 14.3235 24.7619 14.2015C24.8712 14.0796 25.0003 13.9828 25.1487 13.912C25.2972 13.8412 25.4577 13.8061 25.6302 13.8061C25.7295 13.8061 25.818 13.8181 25.8943 13.8418C25.9708 13.8655 26.0345 13.8977 26.0862 13.9391C26.1381 13.9805 26.1781 14.0297 26.2052 14.0856C26.2326 14.1416 26.246 14.2027 26.246 14.2686H26.2466ZM25.0502 15.1307C25.0517 15.2791 25.0771 15.3934 25.1259 15.4733C25.175 15.5533 25.2515 15.5898 25.3552 15.5827C25.4 15.5798 25.4406 15.5692 25.4765 15.551C25.5122 15.5327 25.5422 15.509 25.5671 15.4796C25.5916 15.4502 25.6105 15.4165 25.6239 15.3788C25.6373 15.3411 25.6436 15.3017 25.6436 15.2612C25.6436 15.226 25.6387 15.1932 25.6282 15.1629C25.6176 15.1327 25.6007 15.1081 25.5776 15.0893C25.5545 15.0704 25.5242 15.0576 25.488 15.0513C25.4514 15.045 25.4074 15.047 25.3555 15.057L25.0505 15.1307H25.0502ZM25.5488 14.2244C25.5025 14.2244 25.4568 14.2364 25.4114 14.2601C25.3658 14.2838 25.3232 14.318 25.2832 14.3637C25.2433 14.4094 25.2067 14.4654 25.1739 14.5319C25.141 14.5984 25.1136 14.6741 25.0925 14.7583L25.3638 14.6869C25.4311 14.673 25.4865 14.6547 25.5291 14.6321C25.5719 14.6099 25.6047 14.5853 25.6279 14.5585C25.651 14.5319 25.6664 14.5039 25.675 14.4751C25.6833 14.4462 25.6875 14.4177 25.6875 14.3883C25.6875 14.3366 25.677 14.2958 25.6561 14.2672C25.635 14.2384 25.5993 14.2244 25.5491 14.2244H25.5488ZM28.6028 13.8355L28.4389 15.2189C28.4318 15.2777 28.4298 15.3277 28.4318 15.3682C28.4338 15.4091 28.4409 15.441 28.4535 15.4656C28.4661 15.4902 28.4835 15.5076 28.5052 15.5181C28.5269 15.5287 28.5537 15.5341 28.5857 15.5341C28.6291 15.5341 28.6754 15.5207 28.7239 15.495C28.7724 15.469 28.8184 15.4325 28.8635 15.3856C28.9084 15.3388 28.9503 15.282 28.9889 15.2146C29.0274 15.1472 29.0591 15.0724 29.0842 14.9896L29.225 13.8352H29.8769L29.6119 16.0155H29.2798C29.1256 16.0155 29.0486 15.9441 29.0486 15.8011V15.6623C28.9435 15.794 28.8307 15.8913 28.7099 15.9544C28.5894 16.0175 28.4638 16.0489 28.3336 16.0489C28.2425 16.0489 28.1597 16.0307 28.0854 15.9944C28.0112 15.9579 27.9495 15.9039 27.8999 15.8331C27.8502 15.7623 27.8145 15.6755 27.7933 15.5724C27.7722 15.4693 27.7702 15.3517 27.7871 15.2183L27.951 13.8349H28.6025L28.6028 13.8355ZM31.3899 14.115C31.4376 14.0702 31.4944 14.0288 31.5595 13.9908C31.6246 13.9531 31.6954 13.92 31.772 13.892C31.8485 13.864 31.9281 13.8423 32.0124 13.8269C32.0966 13.8115 32.182 13.8038 32.2688 13.8038C32.3964 13.8038 32.5072 13.8184 32.6003 13.8481C32.6934 13.8775 32.7705 13.916 32.8316 13.9643C32.8927 14.0128 32.9375 14.0688 32.9669 14.1319C32.9963 14.195 33.0112 14.2609 33.0112 14.3295C33.0112 14.38 33.0035 14.4297 32.9872 14.4794C32.9712 14.529 32.9452 14.5767 32.9095 14.6216C32.8738 14.6664 32.8267 14.7069 32.7693 14.7435C32.7119 14.7797 32.6425 14.81 32.5612 14.834C32.6762 14.8634 32.7659 14.9159 32.8296 14.9925C32.8932 15.069 32.9249 15.1664 32.9249 15.284C32.9249 15.3708 32.9058 15.4599 32.8681 15.551C32.8301 15.6421 32.7708 15.724 32.6894 15.7977C32.608 15.8713 32.5035 15.9316 32.3753 15.9787C32.2471 16.0255 32.0929 16.0495 31.9133 16.0495C31.8459 16.0495 31.7802 16.0447 31.7157 16.0355C31.6512 16.0264 31.5866 16.011 31.5224 15.9893C31.4579 15.9676 31.3942 15.9382 31.3302 15.901C31.2666 15.8639 31.202 15.8177 31.1375 15.7614L31.3037 15.5027C31.3148 15.483 31.3317 15.4642 31.3542 15.4467C31.3765 15.4293 31.4019 15.4208 31.4299 15.4208C31.4679 15.4208 31.5013 15.429 31.5301 15.4467C31.559 15.4642 31.5909 15.4833 31.6269 15.5036C31.6626 15.5238 31.7054 15.5427 31.7551 15.5604C31.8048 15.5781 31.8693 15.5872 31.9493 15.5872C32.0152 15.5872 32.0718 15.5795 32.1195 15.5641C32.1671 15.5487 32.2071 15.527 32.2385 15.499C32.2702 15.471 32.2933 15.4373 32.3088 15.3988C32.3242 15.3602 32.3319 15.3188 32.3319 15.274C32.3319 15.232 32.3256 15.1969 32.313 15.1695C32.3005 15.1421 32.2831 15.1204 32.2599 15.1044C32.2368 15.0884 32.2094 15.0778 32.1786 15.0721C32.1477 15.0664 32.1149 15.0636 32.0798 15.0636C32.0586 15.0636 32.0344 15.065 32.0055 15.0678C31.9767 15.0707 31.9467 15.0741 31.915 15.0784C31.8836 15.0827 31.8519 15.0876 31.8211 15.093C31.7902 15.0987 31.7614 15.1041 31.7348 15.1098C31.7348 15.0313 31.7383 14.9556 31.7446 14.8828C31.7508 14.81 31.77 14.7349 31.8019 14.6578C31.8396 14.665 31.877 14.6704 31.9133 14.6752C31.9498 14.6801 31.9861 14.683 32.0227 14.683C32.0983 14.683 32.162 14.6752 32.214 14.6598C32.2659 14.6444 32.3079 14.6247 32.3393 14.6016C32.371 14.5784 32.3933 14.553 32.4067 14.5259C32.4201 14.4985 32.4264 14.4734 32.4264 14.4494C32.4264 14.3934 32.4038 14.3486 32.359 14.3155C32.3142 14.2826 32.2405 14.2664 32.1383 14.2664C32.0681 14.2664 32.0092 14.2726 31.961 14.2861C31.9124 14.2995 31.8705 14.3149 31.8348 14.3317C31.7991 14.3486 31.7677 14.3646 31.7403 14.38C31.7129 14.3954 31.6857 14.4046 31.6589 14.4074C31.6309 14.4103 31.6072 14.4074 31.5875 14.3997C31.5678 14.392 31.547 14.3703 31.5244 14.334L31.3899 14.1153V14.115ZM35.3523 15.5658C35.4251 15.5658 35.4905 15.5433 35.5478 15.4993C35.6052 15.455 35.6543 15.3948 35.6943 15.3185C35.7343 15.242 35.7651 15.1532 35.7868 15.0516C35.8085 14.9499 35.8191 14.842 35.8191 14.7272C35.8191 14.5687 35.798 14.4554 35.7554 14.3874C35.7126 14.3195 35.6426 14.2858 35.5458 14.2858C35.473 14.2858 35.4079 14.3075 35.3503 14.3517C35.2929 14.3957 35.2443 14.4562 35.2043 14.5319C35.1644 14.6076 35.1335 14.6967 35.1118 14.7989C35.0901 14.9011 35.079 15.0099 35.079 15.1247C35.079 15.2803 35.1007 15.3925 35.1435 15.4619C35.1864 15.5313 35.2557 15.5664 35.3525 15.5664L35.3523 15.5658ZM35.2934 16.0492C35.1715 16.0492 35.0579 16.029 34.9522 15.9884C34.8463 15.9476 34.7546 15.8882 34.6767 15.8105C34.599 15.7329 34.5379 15.6366 34.4937 15.5224C34.4494 15.4082 34.4271 15.2771 34.4271 15.1284C34.4271 14.9351 34.4594 14.7569 34.5231 14.595C34.5867 14.4331 34.6724 14.2935 34.7803 14.1758C34.8883 14.0579 35.0136 13.9663 35.1561 13.9003C35.2983 13.8346 35.4476 13.8015 35.6047 13.8015C35.7266 13.8015 35.8402 13.8218 35.9453 13.8626C36.0504 13.9032 36.1423 13.962 36.22 14.0399C36.2977 14.1176 36.3588 14.2138 36.4036 14.328C36.4484 14.4422 36.471 14.5742 36.471 14.7226C36.471 14.9134 36.4393 15.0893 36.3756 15.2512C36.3119 15.4131 36.2257 15.5533 36.1178 15.6717C36.0098 15.7902 35.8851 15.8828 35.7429 15.9493C35.6007 16.0158 35.4505 16.0495 35.2934 16.0495V16.0492ZM39.7289 14.2684C39.7303 14.3791 39.6912 14.4828 39.6104 14.5802C39.5299 14.6775 39.4091 14.7575 39.2495 14.8191C39.3169 14.8249 39.38 14.8383 39.4379 14.8591C39.4962 14.8803 39.5467 14.9082 39.5893 14.9439C39.6321 14.9796 39.6658 15.0239 39.6904 15.0758C39.7149 15.1275 39.7266 15.1872 39.7266 15.2546C39.7266 15.35 39.7055 15.4445 39.6635 15.539C39.6215 15.6335 39.5599 15.7191 39.4779 15.7948C39.396 15.8705 39.2949 15.9316 39.1758 15.9784C39.0568 16.0252 38.9194 16.0492 38.7638 16.0492C38.6222 16.0492 38.4974 16.0281 38.3895 15.987C38.2815 15.9456 38.191 15.8859 38.1174 15.8082C38.044 15.7306 37.9877 15.6358 37.9497 15.5244C37.9121 15.4131 37.8929 15.2883 37.8929 15.1495C37.8929 14.9645 37.9243 14.7906 37.9869 14.6281C38.0494 14.4657 38.1348 14.3232 38.2441 14.2013C38.3535 14.0793 38.4825 13.9825 38.631 13.9117C38.7795 13.8409 38.94 13.8058 39.1124 13.8058C39.2118 13.8058 39.3003 13.8178 39.3766 13.8415C39.4531 13.8652 39.5167 13.8975 39.5684 13.9389C39.6204 13.9803 39.6604 14.0294 39.6875 14.0853C39.7149 14.1413 39.7283 14.2024 39.7283 14.2684H39.7289ZM38.5325 15.1304C38.5339 15.2789 38.5594 15.3931 38.6082 15.473C38.6573 15.553 38.7338 15.5895 38.8375 15.5824C38.8823 15.5795 38.9228 15.569 38.9588 15.5507C38.9945 15.5324 39.0245 15.5087 39.0493 15.4793C39.0739 15.4499 39.0927 15.4162 39.1061 15.3785C39.1196 15.3408 39.1259 15.3014 39.1259 15.2609C39.1259 15.2257 39.121 15.1929 39.1104 15.1626C39.0999 15.1324 39.083 15.1078 39.0599 15.089C39.0368 15.0701 39.0065 15.0573 38.9702 15.051C38.9337 15.0447 38.8897 15.0467 38.8378 15.0567L38.5328 15.1304H38.5325ZM39.0311 14.2241C38.9848 14.2241 38.9391 14.2361 38.8937 14.2598C38.848 14.2835 38.8055 14.3178 38.7655 14.3634C38.7255 14.4091 38.689 14.4651 38.6562 14.5316C38.6233 14.5981 38.5959 14.6738 38.5748 14.758L38.846 14.6867C38.9134 14.6727 38.9688 14.6544 39.0114 14.6318C39.0542 14.6096 39.087 14.585 39.1101 14.5582C39.1333 14.5316 39.1487 14.5036 39.1573 14.4748C39.1655 14.446 39.1698 14.4174 39.1698 14.388C39.1698 14.3363 39.1593 14.2955 39.1384 14.2669C39.1173 14.2381 39.0816 14.2241 39.0313 14.2241H39.0311ZM43.9668 13.8352L43.7061 16.0155H43.0542L43.3149 13.8352H43.9668ZM42.0765 13.8352L41.9672 14.7266C42.0526 14.6424 42.1436 14.5782 42.2399 14.5339C42.3358 14.4896 42.4249 14.4679 42.5077 14.4679C42.5819 14.4679 42.6505 14.4799 42.7136 14.5045C42.7767 14.529 42.8315 14.5647 42.8775 14.611C42.9237 14.6573 42.9603 14.7141 42.986 14.7812C43.012 14.8486 43.0245 14.9248 43.0245 15.0105C43.0245 15.1521 42.9942 15.286 42.9334 15.4119C42.8723 15.5381 42.789 15.6481 42.6839 15.7428C42.5788 15.8374 42.456 15.9125 42.3153 15.967C42.1745 16.0218 42.0237 16.0489 41.8638 16.0489C41.6325 16.0489 41.4664 15.9944 41.3656 15.885C41.2648 15.7757 41.2268 15.6181 41.2519 15.4119L41.4392 13.8349H42.0763L42.0765 13.8352ZM41.881 15.4582C41.8752 15.503 41.8887 15.5401 41.9209 15.5704C41.9532 15.6004 42.0023 15.6158 42.0683 15.6158C42.1217 15.6158 42.1699 15.5989 42.2133 15.5661C42.2567 15.533 42.2938 15.491 42.3247 15.4399C42.3555 15.3888 42.3795 15.3334 42.3961 15.2731C42.4129 15.2129 42.4215 15.1555 42.4215 15.1007C42.4215 15.0741 42.42 15.0481 42.4163 15.0236C42.4129 14.999 42.4058 14.9779 42.3952 14.9599C42.3846 14.9416 42.3701 14.9271 42.3512 14.9159C42.3321 14.9048 42.307 14.8991 42.2761 14.8991C42.2299 14.8991 42.185 14.9139 42.1416 14.9434C42.0982 14.9728 42.0588 15.0107 42.0232 15.0576C41.9875 15.1047 41.9572 15.1578 41.9326 15.2166C41.9081 15.2754 41.8927 15.3337 41.887 15.3911L41.8807 15.4585L41.881 15.4582ZM46.2639 13.8352L46.1 15.2186C46.0928 15.2774 46.0908 15.3274 46.0928 15.3679C46.0948 15.4088 46.102 15.4408 46.1145 15.4653C46.1271 15.4899 46.1445 15.5073 46.1662 15.5178C46.1879 15.5284 46.2148 15.5338 46.2468 15.5338C46.2902 15.5338 46.3364 15.5204 46.3849 15.4947C46.4335 15.4687 46.4795 15.4322 46.5246 15.3854C46.5694 15.3385 46.6114 15.2817 46.6499 15.2143C46.6885 15.1469 46.7202 15.0721 46.7453 14.9893L46.8861 13.8349H47.5379L47.273 16.0152H46.9409C46.7867 16.0152 46.7096 15.9439 46.7096 15.8008V15.662C46.6045 15.7937 46.4917 15.891 46.371 15.9541C46.2505 16.0172 46.1248 16.0487 45.9946 16.0487C45.9035 16.0487 45.8207 16.0304 45.7465 15.9941C45.6723 15.9576 45.6106 15.9036 45.5609 15.8328C45.5112 15.762 45.4755 15.6752 45.4544 15.5721C45.4333 15.469 45.4313 15.3514 45.4481 15.218L45.612 13.8346H46.2636L46.2639 13.8352ZM46.6528 13.2653C46.6976 13.2653 46.7347 13.2604 46.7641 13.2504C46.7935 13.2407 46.8172 13.2239 46.8355 13.1999C46.8538 13.1762 46.8686 13.1439 46.8789 13.104C46.8895 13.064 46.8978 13.0134 46.9049 12.9518H47.2604C47.2815 12.9518 47.2989 12.9566 47.3121 12.9672C47.3255 12.9778 47.3358 12.9909 47.3443 13.0072C47.3526 13.0232 47.3583 13.0414 47.3603 13.0617C47.3623 13.082 47.3618 13.1031 47.3589 13.1242C47.3506 13.1985 47.3258 13.2644 47.2852 13.3224C47.2444 13.3806 47.1913 13.4303 47.1253 13.4717C47.0594 13.5131 46.9831 13.5445 46.8955 13.5662C46.8078 13.5879 46.7133 13.5994 46.6125 13.5994C46.5114 13.5994 46.4198 13.5882 46.337 13.5662C46.2542 13.5445 46.1848 13.5131 46.1288 13.4717C46.0729 13.4303 46.0306 13.3806 46.0026 13.3224C45.9746 13.2644 45.9649 13.1985 45.9732 13.1242C45.9761 13.1031 45.9815 13.0823 45.9892 13.0617C45.9969 13.0414 46.0066 13.0232 46.0186 13.0072C46.0306 12.9909 46.0446 12.9778 46.0606 12.9672C46.0766 12.9566 46.0943 12.9518 46.114 12.9518H46.4715C46.4643 13.0134 46.4618 13.064 46.4632 13.104C46.4646 13.1439 46.4723 13.1762 46.4855 13.1999C46.4989 13.2236 46.5186 13.2404 46.5451 13.2504C46.5717 13.2604 46.6077 13.2653 46.6522 13.2653H46.6528ZM52.8311 13.8352L52.5956 15.7757L52.623 15.5632H52.993L52.7449 16.5535C52.7378 16.6066 52.7155 16.6494 52.6775 16.6823C52.6398 16.7151 52.5956 16.7319 52.545 16.7319H52.1499L52.3643 16.015H52.2341C52.0799 16.015 52.0028 15.9436 52.0028 15.8005V15.6618C51.8977 15.7934 51.7849 15.8908 51.6642 15.9539C51.5437 16.017 51.418 16.0484 51.2878 16.0484C51.1967 16.0484 51.1139 16.0301 51.0397 15.9938C50.9655 15.9573 50.9038 15.9033 50.8541 15.8325C50.8044 15.7617 50.7687 15.6749 50.7476 15.5718C50.7265 15.4687 50.7245 15.3511 50.7413 15.2178L50.9052 13.8343H51.5568L51.3929 15.2178C51.3858 15.2766 51.3838 15.3265 51.3858 15.3671C51.3878 15.4079 51.3949 15.4399 51.4075 15.4645C51.42 15.489 51.4374 15.5064 51.4591 15.517C51.4808 15.5276 51.5077 15.533 51.5397 15.533C51.5831 15.533 51.6293 15.5196 51.6779 15.4939C51.7264 15.4679 51.7724 15.4313 51.8175 15.3845C51.8623 15.3377 51.9043 15.2809 51.9428 15.2135C51.9814 15.1461 52.0131 15.0713 52.0382 14.9885L52.179 13.8341H52.8308L52.8311 13.8352ZM56.3121 14.3714C56.3121 14.4708 56.2924 14.5622 56.2532 14.6447C56.2141 14.7275 56.1462 14.8003 56.0485 14.864C55.9511 14.9277 55.8201 14.9825 55.6553 15.0273C55.4906 15.0721 55.283 15.1073 55.0337 15.1324C55.0366 15.2809 55.0694 15.3896 55.132 15.4582C55.1942 15.527 55.2861 15.5612 55.4081 15.5612C55.4655 15.5612 55.5151 15.5564 55.5574 15.5467C55.5994 15.537 55.6365 15.5244 55.6682 15.509C55.6999 15.4936 55.7279 15.4773 55.753 15.4605C55.7781 15.4436 55.8027 15.4276 55.8258 15.4122C55.8489 15.3968 55.8729 15.3842 55.898 15.3742C55.9232 15.3645 55.952 15.3597 55.9843 15.3597C56.0054 15.3597 56.0257 15.3645 56.0454 15.3751C56.0651 15.3856 56.0825 15.3996 56.0979 15.4165L56.2661 15.6121C56.189 15.6877 56.1142 15.7528 56.0405 15.8082C55.9668 15.8636 55.8912 15.9093 55.8135 15.945C55.7359 15.9807 55.6531 16.0075 55.5654 16.0241C55.4777 16.0409 55.3818 16.0492 55.2779 16.0492C55.1491 16.0492 55.0306 16.027 54.9227 15.9827C54.8147 15.9384 54.7222 15.8762 54.6446 15.7954C54.5669 15.7149 54.5064 15.6181 54.4638 15.5047C54.421 15.3911 54.3993 15.2652 54.3993 15.1261C54.3993 15.0099 54.4127 14.8962 54.4384 14.7855C54.4644 14.6747 54.5015 14.5702 54.5498 14.4728C54.598 14.3754 54.6568 14.2858 54.7271 14.2038C54.7973 14.1219 54.8764 14.0516 54.9641 13.9928C55.0517 13.934 55.1477 13.8877 55.2522 13.8549C55.3567 13.8218 55.4675 13.8058 55.5851 13.8058C55.7016 13.8058 55.8052 13.8226 55.8955 13.8563C55.986 13.89 56.0617 13.9334 56.1233 13.9874C56.185 14.0414 56.2318 14.1025 56.2641 14.1696C56.2964 14.2367 56.3126 14.304 56.3126 14.3714H56.3121ZM55.5468 14.2452C55.4389 14.2452 55.3441 14.2881 55.263 14.374C55.1816 14.4602 55.1208 14.5787 55.08 14.7286C55.2159 14.7075 55.3261 14.6852 55.4101 14.6621C55.4943 14.639 55.5594 14.6136 55.6057 14.5864C55.6519 14.559 55.6833 14.5296 55.6996 14.4982C55.7156 14.4665 55.7233 14.4331 55.7233 14.3966C55.7233 14.3603 55.7093 14.3257 55.6813 14.2935C55.6533 14.2612 55.6085 14.2452 55.5468 14.2452V14.2452ZM59.9086 13.8352L59.6479 16.0155H58.9961L59.1031 15.1093H58.4998L58.3927 16.0155H57.7409L58.0016 13.8352H58.6534L58.5546 14.6573H59.1583L59.257 13.8352H59.9089H59.9086ZM61.31 16.0155L61.575 13.8352H61.9114C61.9787 13.8352 62.0313 13.8506 62.069 13.882C62.1067 13.9137 62.1258 13.9654 62.1258 14.0368V14.165C62.2183 14.0416 62.3157 13.9497 62.4182 13.8903C62.5204 13.8309 62.6278 13.8012 62.74 13.8012C62.8633 13.8012 62.9655 13.8412 63.0469 13.9211C63.1283 14.0011 63.18 14.1173 63.2025 14.2701C63.2993 14.1087 63.405 13.9902 63.52 13.9149C63.6351 13.8392 63.7647 13.8012 63.9089 13.8012C64 13.8012 64.082 13.8195 64.1551 13.856C64.2279 13.8923 64.2881 13.9457 64.3358 14.0159C64.3835 14.0862 64.4172 14.1721 64.436 14.2752C64.4552 14.3783 64.4557 14.4968 64.4389 14.6298L64.275 16.0155H63.6317L63.7956 14.6298C63.8027 14.571 63.8053 14.5213 63.8033 14.4805C63.8013 14.44 63.795 14.4077 63.7845 14.3837C63.7739 14.36 63.7585 14.3423 63.7388 14.332C63.7191 14.3215 63.6959 14.3166 63.6694 14.3166C63.626 14.3166 63.5846 14.328 63.5446 14.3509C63.5046 14.374 63.4669 14.4077 63.431 14.4517C63.3953 14.4959 63.3621 14.549 63.3327 14.6116C63.3033 14.6741 63.2773 14.7441 63.2551 14.8211L63.1143 16.0152H62.471L62.6349 14.6296C62.642 14.5707 62.6446 14.5211 62.6426 14.4802C62.6406 14.4397 62.6343 14.4074 62.6238 14.3834C62.6132 14.3597 62.5978 14.342 62.5781 14.3317C62.5584 14.3212 62.5352 14.3163 62.5087 14.3163C62.4653 14.3163 62.4233 14.3283 62.3825 14.352C62.3417 14.3757 62.304 14.4103 62.2683 14.4551C62.2326 14.4999 62.1995 14.5539 62.17 14.6176C62.1406 14.6812 62.1147 14.7529 62.0924 14.8314L61.9493 16.0152H61.3103L61.31 16.0155ZM65.836 16.7071L66.1849 13.8352H66.5213C66.5887 13.8352 66.6412 13.8506 66.6789 13.882C66.7166 13.9137 66.7357 13.9654 66.7357 14.0368V14.2344C66.8354 14.0999 66.9462 13.994 67.0681 13.9169C67.19 13.8398 67.3205 13.8012 67.459 13.8012C67.5486 13.8012 67.6306 13.8166 67.7051 13.8483C67.7793 13.8797 67.8439 13.9297 67.8978 13.9968C67.9518 14.0639 67.9938 14.1496 68.024 14.2541C68.054 14.3586 68.0689 14.4831 68.0689 14.6276C68.0689 14.8183 68.04 14.999 67.9821 15.1706C67.9238 15.3422 67.8453 15.4939 67.7474 15.6241C67.6491 15.7546 67.5363 15.8573 67.4081 15.9339C67.2799 16.0104 67.1452 16.0487 67.0053 16.0487C66.9142 16.0487 66.8328 16.0341 66.7614 16.0047C66.69 15.9753 66.6269 15.9359 66.5721 15.8868L66.4713 16.7068H65.8363L65.836 16.7071ZM67.1983 14.2955C67.1534 14.2955 67.1063 14.3123 67.0575 14.3466C67.0084 14.3809 66.9616 14.428 66.9159 14.4874C66.8702 14.547 66.8277 14.617 66.7877 14.6969C66.7477 14.7769 66.714 14.8623 66.6875 14.9534L66.6224 15.479C66.6632 15.5113 66.7086 15.5344 66.7583 15.5484C66.808 15.5624 66.8551 15.5695 66.8999 15.5695C66.9756 15.5695 67.0458 15.5441 67.1095 15.4939C67.1732 15.4433 67.228 15.3768 67.2742 15.2948C67.3205 15.2129 67.357 15.1195 67.3827 15.0145C67.4087 14.9094 67.4213 14.802 67.4213 14.6927C67.4213 14.5539 67.401 14.4531 67.3602 14.39C67.3196 14.3269 67.2657 14.2955 67.1983 14.2955V14.2955Z" fill="#2B2A29"/>
</svg>
