<svg width="79" height="17" viewBox="0 0 79 17" fill="none" xmlns="http://www.w3.org/2000/svg">
<path d="M22.624 3.71344H24.664C24.834 3.71344 24.9695 3.75327 25.0677 3.83567C25.1659 3.91807 25.2271 4.02168 25.2537 4.1439L25.7955 7.84937C25.8433 8.16275 25.8833 8.46824 25.9151 8.76849C25.9469 9.06856 25.9735 9.37139 25.9947 9.67429C26.0903 9.37679 26.194 9.07663 26.3029 8.77638C26.4118 8.47631 26.534 8.16807 26.6721 7.84937L28.1223 4.1439C28.1809 4.02168 28.2684 3.91807 28.3853 3.83567C28.5022 3.75327 28.6324 3.71344 28.7758 3.71344H30.7362L26.7198 11.9772H24.6319L22.6238 3.71344H22.624ZM33.9557 3.71344L32.9675 11.9772H30.529L31.5172 3.71344H33.9557V3.71344ZM34.4178 1.45034C34.4178 1.64681 34.3754 1.83015 34.2905 2.00285C34.2055 2.17547 34.0939 2.32688 33.9558 2.45709C33.8177 2.58721 33.661 2.69081 33.483 2.76789C33.305 2.84489 33.1217 2.88471 32.9357 2.88471C32.7498 2.88471 32.5718 2.84489 32.4019 2.76789C32.2318 2.69081 32.0832 2.58721 31.9529 2.45709C31.8228 2.32688 31.7166 2.17547 31.6368 2.00285C31.5572 1.83015 31.5173 1.64681 31.5173 1.45034C31.5173 1.25378 31.5572 1.06777 31.6368 0.892414C31.7166 0.71714 31.8254 0.562982 31.9609 0.430196C32.0963 0.29741 32.2478 0.191061 32.4178 0.114068C32.5879 0.0370747 32.7657 -9.15527e-05 32.9517 -9.15527e-05C33.1429 -9.15527e-05 33.3262 0.0370747 33.5015 0.111493C33.6768 0.185911 33.8336 0.289428 33.969 0.422213C34.1045 0.554999 34.2134 0.709072 34.2958 0.884517C34.3781 1.0597 34.4179 1.24845 34.4179 1.45034H34.4178ZM40.2591 5.45065C40.1847 5.54626 40.1156 5.61536 40.0519 5.65794C39.9881 5.70034 39.9031 5.72162 39.7969 5.72162C39.6906 5.72162 39.587 5.69776 39.4834 5.64995C39.3799 5.60214 39.2683 5.54626 39.1489 5.48524C39.0293 5.42412 38.8938 5.37108 38.7423 5.3231C38.5909 5.27529 38.4157 5.25142 38.219 5.25142C37.8525 5.25142 37.5921 5.32052 37.4354 5.4612C37.2787 5.60214 37.199 5.78531 37.199 6.00848C37.199 6.15191 37.2443 6.27405 37.3319 6.375C37.4196 6.47602 37.5337 6.56632 37.6771 6.64597C37.8207 6.72554 37.9854 6.79739 38.1686 6.86374C38.3518 6.93017 38.5378 7.0045 38.7291 7.08682C38.9204 7.16922 39.1089 7.26484 39.2922 7.37102C39.4755 7.47728 39.6375 7.60749 39.7809 7.76165C39.9245 7.91564 40.0414 8.09898 40.1289 8.31142C40.2166 8.52394 40.2591 8.77621 40.2591 9.06839C40.2591 9.4828 40.1767 9.87326 40.012 10.2425C39.8474 10.6117 39.6109 10.9331 39.3028 11.2068C38.9948 11.4804 38.6229 11.6982 38.1845 11.8602C37.7462 12.0223 37.2521 12.1045 36.7049 12.1045C36.4446 12.1045 36.1869 12.0779 35.9319 12.0248C35.6769 11.9717 35.4379 11.9 35.2121 11.8096C34.9862 11.7193 34.779 11.6104 34.5932 11.4856C34.4072 11.3607 34.2558 11.2279 34.1389 11.0845L34.7446 10.176C34.819 10.0697 34.9066 9.98467 35.005 9.92356C35.1032 9.86253 35.2227 9.83335 35.3662 9.83335C35.499 9.83335 35.6133 9.8651 35.7088 9.92897C35.8045 9.99265 35.908 10.0618 36.0196 10.1362C36.1312 10.2105 36.264 10.2796 36.4181 10.3433C36.5721 10.4071 36.774 10.439 37.0237 10.439C37.3743 10.439 37.6347 10.3593 37.8047 10.2025C37.9747 10.0458 38.0597 9.86262 38.0597 9.65009C38.0597 9.48537 38.0172 9.34993 37.9295 9.24366C37.8418 9.1374 37.7249 9.04436 37.5815 8.96736C37.4381 8.89028 37.2761 8.82127 37.0954 8.76016C36.9149 8.69905 36.7288 8.6327 36.5376 8.55828C36.3464 8.48394 36.1604 8.39631 35.9798 8.29794C35.7991 8.19966 35.637 8.07743 35.4937 7.92868C35.3502 7.78002 35.236 7.59667 35.1483 7.37891C35.0607 7.16115 35.0155 6.89816 35.0155 6.59001C35.0155 6.20753 35.0873 5.83561 35.2281 5.47434C35.3688 5.11315 35.5788 4.7917 35.8576 4.51273C36.1365 4.23386 36.4818 4.01077 36.8962 3.84074C37.3106 3.6707 37.7941 3.58572 38.3465 3.58572C38.8991 3.58572 39.3931 3.68134 39.8261 3.87258C40.2591 4.06382 40.6151 4.29755 40.8966 4.57385L40.2591 5.45039V5.45065ZM48.0289 11.9772H46.706C46.552 11.9772 46.4244 11.9559 46.3208 11.9161C46.2172 11.8763 46.1349 11.8232 46.0737 11.754C46.0126 11.685 45.9702 11.6026 45.9463 11.5069C45.9224 11.4113 45.9092 11.3077 45.9092 11.1961V10.6065C45.5691 11.074 45.1919 11.4406 44.7775 11.7062C44.3631 11.9718 43.9062 12.1047 43.4068 12.1047C43.1093 12.1047 42.8225 12.0436 42.5463 11.9241C42.27 11.8045 42.0256 11.6239 41.8131 11.3822C41.6005 11.1404 41.4306 10.8323 41.303 10.4578C41.1756 10.0833 41.1118 9.64228 41.1118 9.13225C41.1118 8.38317 41.2499 7.67127 41.5235 6.99927C41.7971 6.32719 42.1796 5.74016 42.671 5.23546C43.1624 4.73075 43.7442 4.32965 44.4189 4.03206C45.0936 3.73465 45.8348 3.58589 46.6422 3.58589C47.0353 3.58589 47.4337 3.6125 47.8375 3.66563C48.2413 3.71877 48.6397 3.8143 49.0329 3.95249L48.0289 11.9771V11.9772ZM44.3951 10.1523C44.5756 10.1523 44.7509 10.0833 44.921 9.94768C45.091 9.81232 45.253 9.62897 45.4045 9.39516C45.5558 9.16143 45.694 8.88788 45.8214 8.57433C45.9489 8.26095 46.0578 7.92619 46.1481 7.57032L46.435 5.28327H46.2916C45.8878 5.28327 45.5212 5.37357 45.1892 5.55416C44.8571 5.73484 44.5702 5.97913 44.3312 6.28993C44.0922 6.60074 43.9088 6.96202 43.7787 7.37376C43.6485 7.7856 43.5821 8.22644 43.5821 8.69398C43.5821 8.95955 43.6034 9.18538 43.6459 9.3713C43.6884 9.5573 43.7468 9.70597 43.8185 9.8203C43.8903 9.93446 43.9753 10.0195 44.0735 10.0726C44.1718 10.1257 44.2781 10.1523 44.3951 10.1523V10.1523ZM58.7072 11.9772C58.5532 11.9772 58.4256 11.9559 58.322 11.9161C58.2184 11.8763 58.1361 11.8232 58.075 11.754C58.0139 11.685 57.9714 11.6026 57.9474 11.5069C57.9235 11.4113 57.9103 11.3077 57.9103 11.1961V10.5029C57.533 11.0022 57.116 11.3928 56.6591 11.677C56.2023 11.9613 55.7162 12.1047 55.2007 12.1047C54.8607 12.1047 54.55 12.0436 54.2684 11.9241C53.9868 11.8045 53.7451 11.6186 53.5406 11.3636C53.336 11.1086 53.1766 10.7819 53.0624 10.3861C52.9483 9.99034 52.8898 9.51756 52.8898 8.96505C52.8898 8.48686 52.9402 8.01932 53.0411 7.56509C53.1422 7.11085 53.2829 6.68589 53.4635 6.28753C53.6441 5.889 53.8593 5.5224 54.109 5.1904C54.3587 4.85839 54.635 4.57419 54.9351 4.3378C55.2352 4.10133 55.5514 3.91807 55.886 3.7852C56.2206 3.65242 56.566 3.58598 56.922 3.58598C57.262 3.58598 57.5702 3.64177 57.8437 3.75602C58.1173 3.87018 58.3564 4.02168 58.5636 4.20759L59.0895 0.047804H61.512L60.0299 11.9773H58.707L58.7072 11.9772ZM56.189 10.2241C56.3591 10.2241 56.537 10.1604 56.7203 10.0327C56.9036 9.90536 57.0815 9.72992 57.2541 9.50683C57.4268 9.28375 57.5862 9.02075 57.7349 8.7205C57.8837 8.42043 58.0112 8.09898 58.1174 7.75367L58.3724 5.74549C58.2184 5.62326 58.0484 5.53562 57.8598 5.48249C57.6712 5.42936 57.4906 5.40275 57.3206 5.40275C57.0337 5.40275 56.7706 5.49837 56.529 5.68961C56.2873 5.88093 56.0774 6.13062 55.9021 6.44143C55.7268 6.75224 55.5913 7.10811 55.493 7.50655C55.3948 7.90491 55.3443 8.31142 55.3443 8.72583C55.3443 9.25173 55.4213 9.63164 55.5754 9.86802C55.7295 10.1044 55.934 10.2239 56.189 10.2239V10.2241ZM68.5089 11.9772H67.1861C67.0321 11.9772 66.9045 11.9559 66.8009 11.9161C66.6973 11.8763 66.615 11.8232 66.5538 11.754C66.4928 11.685 66.4503 11.6026 66.4264 11.5069C66.4025 11.4113 66.3892 11.3077 66.3892 11.1961V10.6065C66.0492 11.074 65.672 11.4406 65.2576 11.7062C64.8432 11.9718 64.3863 12.1047 63.887 12.1047C63.5894 12.1047 63.3025 12.0436 63.0263 11.9241C62.75 11.8045 62.5058 11.6239 62.2931 11.3822C62.0807 11.1404 61.9107 10.8323 61.7832 10.4578C61.6556 10.0833 61.5919 9.64228 61.5919 9.13225C61.5919 8.38317 61.73 7.67127 62.0035 6.99927C62.2772 6.32719 62.6597 5.74016 63.1511 5.23546C63.6425 4.73075 64.2242 4.32965 64.8989 4.03206C65.5736 3.73465 66.3147 3.58589 67.1222 3.58589C67.5153 3.58589 67.9137 3.6125 68.3176 3.66563C68.7213 3.71877 69.1198 3.8143 69.5129 3.95249L68.5088 11.9771L68.5089 11.9772ZM64.8751 10.1523C65.0557 10.1523 65.231 10.0833 65.4011 9.94768C65.5712 9.81232 65.7331 9.62897 65.8845 9.39516C66.0359 9.16143 66.1741 8.88788 66.3015 8.57433C66.429 8.26095 66.5379 7.92619 66.6283 7.57032L66.9151 5.28327H66.7716C66.3679 5.28327 66.0013 5.37357 65.6693 5.55416C65.3373 5.73484 65.0504 5.97913 64.8113 6.28993C64.5722 6.60074 64.389 6.96202 64.2587 7.37376C64.1286 7.7856 64.0622 8.22644 64.0622 8.69398C64.0622 8.95955 64.0835 9.18538 64.126 9.3713C64.1685 9.5573 64.227 9.70597 64.2987 9.8203C64.3703 9.93446 64.4554 10.0195 64.5537 10.0726C64.6519 10.1257 64.7581 10.1523 64.875 10.1523H64.8751ZM71.8703 16.2467C71.7059 16.5629 71.4453 16.7169 71.1052 16.7169H69.2565L72.31 11.2361L70.262 3.71344H72.3498C72.5252 3.71344 72.6581 3.75593 72.7456 3.84091C72.8333 3.92588 72.8917 4.02691 72.9236 4.14382L73.6409 7.70577C73.6728 7.85984 73.702 8.01125 73.7286 8.16267C73.7551 8.31408 73.7764 8.46815 73.7923 8.62222C73.856 8.46815 73.9251 8.31142 73.9967 8.1546C74.0685 7.99786 74.1403 7.84379 74.2145 7.68981L75.7446 4.14373C75.8084 4.0215 75.9013 3.9179 76.0235 3.8355C76.1457 3.7531 76.2705 3.71327 76.398 3.71327H78.3903L71.8702 16.2465L71.8703 16.2467Z" fill="#FEFEFE"/>
<path fill-rule="evenodd" clip-rule="evenodd" d="M9.76604 0.343414C15.1595 0.343414 19.5318 4.71573 19.5318 10.1093C19.5318 10.4492 19.5143 10.785 19.4805 11.1158C18.994 10.8335 18.429 10.6718 17.8261 10.6718C16.0436 10.6718 14.5914 12.0849 14.5278 13.8518C14.3745 13.8086 14.2128 13.7853 14.0457 13.7853C13.5007 13.7853 13.0132 14.0315 12.6881 14.4185C12.3531 13.7312 11.6475 13.2574 10.8313 13.2574C9.6912 13.2574 8.76685 14.1817 8.76685 15.3219C8.76685 15.6207 8.83045 15.9045 8.94452 16.1608C8.75586 16.162 8.57432 16.1927 8.40403 16.2485C8.11991 15.8139 7.65031 15.5117 7.10775 15.4544C7.16913 15.2352 7.20217 15.0043 7.20217 14.7658C7.20217 13.3602 6.06255 12.2207 4.65684 12.2207C4.63015 12.2207 4.60337 12.2213 4.57684 12.222C4.50998 11.3041 3.74425 10.5804 2.80934 10.5804C2.23657 10.5804 1.72723 10.8523 1.40321 11.274C1.05686 10.8797 0.565034 10.6168 0.0113168 10.5694C0.00419252 10.4168 0.000244141 10.2635 0.000244141 10.1093C0.000244141 4.71573 4.37256 0.343414 9.76613 0.343414H9.76604ZM5.39553 8.94899C4.71066 8.6096 4.15806 8.75552 3.59104 8.84882C4.1257 9.36443 4.66036 9.88004 5.19502 10.3956C6.5985 10.41 8.00198 10.4241 9.40563 10.4386C11.6111 9.83695 13.8167 9.33576 16.0221 8.63398C17.0766 8.24232 17.1259 7.34518 15.9361 7.44535C14.4467 7.54088 12.9573 8.00868 11.4678 8.29021C10.5194 7.79564 9.57086 7.30089 8.62247 6.80622C8.16086 6.56554 8.0618 6.57095 7.7152 6.57584C7.18981 6.58314 6.66519 6.62082 6.14023 6.64331C6.98046 7.4644 7.82061 8.28549 8.66084 9.10658C7.99254 9.30709 7.32414 9.5076 6.65584 9.70811C6.23576 9.45507 5.81561 9.20203 5.39553 8.94899Z" fill="#FEFEFE"/>
<path d="M26.2466 14.2686C26.248 14.3793 26.2088 14.483 26.1282 14.5805C26.0477 14.6779 25.9271 14.7578 25.7672 14.8194C25.8345 14.825 25.8976 14.8383 25.9557 14.8594C26.0139 14.8804 26.0644 14.9085 26.1071 14.9442C26.15 14.9799 26.1835 15.0241 26.2082 15.076C26.2326 15.1278 26.2446 15.1874 26.2446 15.2547C26.2446 15.35 26.2235 15.4446 26.1815 15.5393C26.1395 15.6339 26.0778 15.7193 25.9958 15.7951C25.9138 15.8708 25.8129 15.9318 25.6937 15.9787C25.5745 16.0256 25.4372 16.0495 25.2816 16.0495C25.14 16.0495 25.0153 16.0284 24.9073 15.9872C24.7994 15.9458 24.709 15.8861 24.6353 15.8084C24.5619 15.7307 24.5057 15.6359 24.4679 15.5246C24.4301 15.4132 24.4111 15.2884 24.4111 15.1496C24.4111 14.9646 24.4426 14.7908 24.505 14.6282C24.5674 14.4657 24.6529 14.3233 24.7622 14.2015C24.8715 14.0796 25.0005 13.9827 25.1491 13.9119C25.2976 13.8412 25.4581 13.8061 25.6307 13.8061C25.7301 13.8061 25.8185 13.818 25.8949 13.8419C25.9713 13.8657 26.0349 13.8979 26.0869 13.9393C26.1388 13.9806 26.1787 14.0297 26.206 14.0858C26.2334 14.1418 26.2467 14.2028 26.2467 14.2687L26.2466 14.2686ZM25.0503 15.1306C25.0516 15.2792 25.0769 15.3934 25.126 15.4733C25.1751 15.5533 25.2515 15.5897 25.3551 15.5828C25.4 15.58 25.4406 15.5695 25.4764 15.5512C25.5121 15.533 25.5423 15.5092 25.5668 15.4797C25.5913 15.4503 25.6102 15.4167 25.6235 15.3788C25.6369 15.341 25.6433 15.3017 25.6433 15.2611C25.6433 15.226 25.6384 15.1931 25.6277 15.163C25.6173 15.1328 25.6005 15.1083 25.5774 15.0894C25.5543 15.0705 25.5241 15.0578 25.4877 15.0515C25.4512 15.0452 25.4071 15.0473 25.3551 15.057L25.0503 15.1306V15.1306ZM25.5487 14.2244C25.5024 14.2244 25.4568 14.2363 25.4113 14.2602C25.3657 14.2839 25.323 14.3183 25.283 14.3639C25.243 14.4094 25.2066 14.4655 25.1737 14.5321C25.1408 14.5987 25.1133 14.6744 25.0924 14.7585L25.3636 14.687C25.4309 14.673 25.4863 14.6547 25.529 14.6323C25.5719 14.6099 25.6047 14.5855 25.6278 14.5588C25.651 14.5322 25.6665 14.5042 25.6749 14.4754C25.6833 14.4467 25.6875 14.4179 25.6875 14.3885C25.6875 14.3367 25.677 14.296 25.656 14.2673C25.635 14.2384 25.5992 14.2245 25.5488 14.2245L25.5487 14.2244ZM28.6027 13.8355L28.4387 15.2188C28.4316 15.2777 28.4296 15.3275 28.4316 15.3681C28.4337 15.4088 28.4407 15.441 28.4534 15.4655C28.466 15.4902 28.4835 15.5076 28.5052 15.5182C28.527 15.5286 28.5536 15.5343 28.5858 15.5343C28.6293 15.5343 28.6755 15.521 28.7239 15.4951C28.7723 15.4691 28.8185 15.4327 28.8634 15.3856C28.9082 15.3388 28.9502 15.2819 28.9888 15.2146C29.0274 15.1473 29.0589 15.0724 29.084 14.9898L29.225 13.8355H29.8768L29.6119 16.0157H29.2797C29.1256 16.0157 29.0484 15.9442 29.0484 15.8012V15.6625C28.9434 15.7942 28.8304 15.8916 28.7099 15.9547C28.5893 16.0178 28.4639 16.0493 28.3335 16.0493C28.2424 16.0493 28.1597 16.0311 28.0854 15.9947C28.0111 15.9582 27.9496 15.9043 27.8998 15.8335C27.85 15.7627 27.8143 15.6758 27.7933 15.5728C27.7721 15.4697 27.7701 15.3521 27.787 15.2188L27.951 13.8355H28.6028H28.6027ZM31.3898 14.115C31.4375 14.0701 31.4942 14.0288 31.5594 13.9909C31.6246 13.9531 31.6954 13.9202 31.7719 13.8921C31.8482 13.8641 31.9281 13.8424 32.0123 13.8269C32.0964 13.8115 32.1819 13.8038 32.2687 13.8038C32.3962 13.8038 32.507 13.8185 32.6002 13.848C32.6935 13.8774 32.7705 13.916 32.8315 13.9643C32.8925 14.0127 32.9374 14.0687 32.9668 14.1318C32.9962 14.1948 33.011 14.2608 33.011 14.3294C33.011 14.3798 33.0032 14.4296 32.9871 14.4793C32.971 14.5291 32.9451 14.5768 32.9093 14.6216C32.8736 14.6665 32.8267 14.7071 32.7692 14.7436C32.7117 14.78 32.6424 14.8101 32.561 14.834C32.676 14.8634 32.7657 14.9159 32.8294 14.9923C32.8932 15.0687 32.9248 15.1661 32.9248 15.2838C32.9248 15.3707 32.9058 15.4597 32.868 15.5509C32.83 15.6419 32.7705 15.724 32.6893 15.7975C32.608 15.8711 32.5034 15.9314 32.3753 15.9785C32.2469 16.0253 32.0928 16.0492 31.9134 16.0492C31.8461 16.0492 31.7803 16.0443 31.7158 16.0352C31.6513 16.0261 31.5868 16.0108 31.5224 15.989C31.458 15.9672 31.3941 15.9379 31.3303 15.9007C31.2665 15.8635 31.2021 15.8173 31.1376 15.7612L31.3037 15.5026C31.3149 15.483 31.3317 15.464 31.3542 15.4465C31.3766 15.429 31.4018 15.4206 31.4298 15.4206C31.4677 15.4206 31.5013 15.429 31.5301 15.4465C31.5588 15.464 31.5911 15.483 31.6269 15.5033C31.6626 15.5236 31.7054 15.5425 31.7551 15.56C31.8049 15.5776 31.8694 15.5867 31.9493 15.5867C32.0152 15.5867 32.0718 15.579 32.1196 15.5636C32.1672 15.5481 32.2072 15.5265 32.2387 15.4984C32.2703 15.4703 32.2934 15.4367 32.3088 15.3982C32.3242 15.3596 32.3319 15.3183 32.3319 15.2734C32.3319 15.2314 32.3257 15.1964 32.313 15.1691C32.3004 15.1417 32.2829 15.12 32.2598 15.1038C32.2366 15.0877 32.2094 15.0772 32.1785 15.0716C32.1476 15.066 32.1148 15.0631 32.0797 15.0631C32.0586 15.0631 32.0342 15.0645 32.0053 15.0674C31.9767 15.0703 31.9465 15.0738 31.9149 15.0779C31.8834 15.0821 31.8519 15.087 31.821 15.0926C31.7902 15.0982 31.7615 15.1037 31.7349 15.1094C31.7349 15.0309 31.7384 14.9553 31.7446 14.8823C31.7509 14.8094 31.77 14.7344 31.8022 14.6574C31.8399 14.6644 31.8772 14.67 31.9136 14.6749C31.95 14.6798 31.9864 14.6826 32.023 14.6826C32.0987 14.6826 32.1624 14.6749 32.2143 14.6596C32.2663 14.644 32.3082 14.6244 32.3397 14.6014C32.3713 14.5783 32.3937 14.5529 32.407 14.5257C32.4203 14.4984 32.4268 14.473 32.4268 14.4493C32.4268 14.3931 32.4043 14.3483 32.3595 14.3154C32.3146 14.2825 32.2409 14.2663 32.1387 14.2663C32.0686 14.2663 32.0097 14.2726 31.9614 14.2859C31.913 14.2992 31.871 14.3146 31.8352 14.3315C31.7995 14.3483 31.768 14.3644 31.7406 14.3798C31.7133 14.3952 31.686 14.4043 31.6593 14.4071C31.6313 14.41 31.6076 14.4071 31.5878 14.3994C31.5683 14.3917 31.5472 14.3699 31.5248 14.3336L31.3902 14.1148L31.3898 14.115ZM35.3522 15.5658C35.4251 15.5658 35.4903 15.5433 35.5477 15.4992C35.6052 15.455 35.6543 15.3947 35.6942 15.3184C35.7342 15.242 35.765 15.153 35.7868 15.0513C35.8086 14.9497 35.819 14.8418 35.819 14.7268C35.819 14.5684 35.7979 14.4548 35.7553 14.3869C35.7124 14.3189 35.6425 14.2852 35.5456 14.2852C35.4728 14.2852 35.4076 14.3069 35.3501 14.3511C35.2926 14.3953 35.2443 14.4555 35.2043 14.5312C35.1644 14.6069 35.1335 14.6959 35.1118 14.7983C35.09 14.9006 35.0789 15.0092 35.0789 15.1242C35.0789 15.2798 35.1006 15.3919 35.1433 15.4612C35.1861 15.5307 35.2554 15.5657 35.3522 15.5657V15.5658ZM35.2933 16.0493C35.1714 16.0493 35.0578 16.029 34.952 15.9884C34.8462 15.9477 34.7544 15.888 34.6766 15.8103C34.5988 15.7326 34.5378 15.6364 34.4937 15.5223C34.4495 15.4081 34.4271 15.277 34.4271 15.1284C34.4271 14.935 34.4592 14.757 34.523 14.5951C34.5868 14.4332 34.6723 14.2937 34.7802 14.176C34.8881 14.0582 35.0136 13.9664 35.1559 13.9004C35.2981 13.8346 35.4474 13.8016 35.6044 13.8016C35.7263 13.8016 35.8399 13.822 35.9449 13.8627C36.05 13.9033 36.1419 13.9621 36.2198 14.04C36.2975 14.1178 36.3585 14.2138 36.4034 14.3281C36.4482 14.4422 36.4707 14.5741 36.4707 14.7226C36.4707 14.9133 36.4391 15.0892 36.3753 15.251C36.3116 15.4129 36.2255 15.553 36.1174 15.6715C36.0095 15.7899 35.8847 15.8824 35.7425 15.949C35.6002 16.0156 35.4502 16.0492 35.2932 16.0492L35.2933 16.0493ZM39.7288 14.2685C39.7302 14.3792 39.691 14.4829 39.6104 14.5804C39.5298 14.6778 39.4092 14.7577 39.2494 14.8193C39.3167 14.825 39.3798 14.8383 39.4379 14.8593C39.4961 14.8803 39.5466 14.9084 39.5893 14.9441C39.6321 14.9798 39.6657 15.024 39.6903 15.0759C39.7148 15.1277 39.7267 15.1873 39.7267 15.2546C39.7267 15.3499 39.7057 15.4445 39.6636 15.5392C39.6217 15.6338 39.5599 15.7193 39.478 15.795C39.396 15.8707 39.2951 15.9317 39.1758 15.9787C39.0567 16.0255 38.9194 16.0494 38.7637 16.0494C38.6222 16.0494 38.4975 16.0284 38.3895 15.9871C38.2815 15.9457 38.1911 15.886 38.1175 15.8083C38.044 15.7306 37.9879 15.6358 37.95 15.5245C37.9123 15.4131 37.8933 15.2883 37.8933 15.1495C37.8933 14.9645 37.9248 14.7907 37.9872 14.6281C38.0496 14.4656 38.1351 14.3233 38.2444 14.2014C38.3536 14.0795 38.4826 13.9827 38.6313 13.9118C38.7798 13.8411 38.9403 13.806 39.1128 13.806C39.2123 13.806 39.3006 13.8179 39.377 13.8418C39.4534 13.8656 39.5171 13.8978 39.569 13.9392C39.621 13.9805 39.6609 14.0296 39.6882 14.0857C39.7156 14.1417 39.7289 14.2027 39.7289 14.2687L39.7288 14.2685ZM38.5324 15.1305C38.5338 15.2791 38.5591 15.3933 38.6081 15.4733C38.6572 15.5532 38.7336 15.5897 38.8373 15.5827C38.8822 15.5799 38.9228 15.5694 38.9586 15.5511C38.9943 15.5329 39.0244 15.5091 39.049 15.4796C39.0734 15.4502 39.0924 15.4166 39.1057 15.3787C39.1191 15.3409 39.1255 15.3016 39.1255 15.261C39.1255 15.2259 39.1206 15.193 39.1099 15.1629C39.0994 15.1327 39.0826 15.1082 39.0595 15.0893C39.0364 15.0704 39.0062 15.0577 38.9698 15.0514C38.9334 15.0451 38.8892 15.0472 38.8373 15.057L38.5324 15.1305V15.1305ZM39.0309 14.2243C38.9846 14.2243 38.9389 14.2362 38.8934 14.2601C38.8479 14.2839 38.8051 14.3182 38.7651 14.3638C38.7252 14.4093 38.6887 14.4654 38.6559 14.532C38.623 14.5986 38.5955 14.6743 38.5746 14.7584L38.8458 14.6869C38.9131 14.6729 38.9685 14.6547 39.0112 14.6323C39.054 14.6099 39.0869 14.5854 39.11 14.5587C39.1332 14.5321 39.1486 14.5041 39.157 14.4753C39.1655 14.4466 39.1697 14.4178 39.1697 14.3884C39.1697 14.3366 39.1592 14.2959 39.1382 14.2672C39.1171 14.2384 39.0813 14.2244 39.0309 14.2244L39.0309 14.2243ZM43.9667 13.8354L43.706 16.0156H43.0542L43.3149 13.8354H43.9667ZM42.0765 13.8354L41.9673 14.7268C42.0527 14.6426 42.1438 14.5783 42.2399 14.5341C42.3358 14.4899 42.4249 14.4681 42.5077 14.4681C42.5818 14.4681 42.6506 14.4801 42.7137 14.5046C42.7768 14.5291 42.8314 14.5648 42.8777 14.6111C42.924 14.6574 42.9604 14.7141 42.9863 14.7814C43.0123 14.8487 43.0249 14.9251 43.0249 15.0106C43.0249 15.1522 42.9947 15.2861 42.9338 15.4122C42.8728 15.5383 42.7895 15.6484 42.6843 15.743C42.5791 15.8376 42.4565 15.9126 42.3157 15.9672C42.1749 16.0219 42.0242 16.0492 41.8643 16.0492C41.633 16.0492 41.4669 15.9946 41.3661 15.8852C41.2651 15.7759 41.2273 15.6181 41.2525 15.4121L41.4397 13.8353H42.0767L42.0765 13.8354ZM41.881 15.4585C41.8754 15.5034 41.8887 15.5405 41.9209 15.5707C41.9532 15.6008 42.0022 15.6162 42.0681 15.6162C42.1214 15.6162 42.1697 15.5994 42.2132 15.5665C42.2567 15.5335 42.2938 15.4915 42.3246 15.4403C42.3555 15.3891 42.3793 15.3338 42.3961 15.2735C42.4129 15.2132 42.4214 15.1558 42.4214 15.1011C42.4214 15.0745 42.42 15.0485 42.4164 15.024C42.4129 14.9995 42.406 14.9784 42.3954 14.9602C42.3849 14.942 42.3702 14.9274 42.3513 14.9161C42.3323 14.905 42.3071 14.8992 42.2763 14.8992C42.23 14.8992 42.1852 14.914 42.1417 14.9434C42.0982 14.9728 42.059 15.0107 42.0233 15.0576C41.9875 15.1046 41.9574 15.1579 41.9329 15.2167C41.9083 15.2756 41.8929 15.3338 41.8873 15.3912L41.8811 15.4585H41.881ZM46.2638 13.8354L46.0997 15.2188C46.0927 15.2776 46.0907 15.3274 46.0927 15.368C46.0948 15.4087 46.1018 15.4409 46.1145 15.4655C46.1271 15.4901 46.1446 15.5075 46.1663 15.5181C46.1881 15.5285 46.2147 15.5342 46.2469 15.5342C46.2904 15.5342 46.3366 15.5209 46.385 15.495C46.4334 15.469 46.4796 15.4326 46.5245 15.3855C46.5693 15.3387 46.6113 15.2819 46.6499 15.2146C46.6885 15.1473 46.72 15.0723 46.7451 14.9897L46.8861 13.8354H47.5379L47.273 16.0156H46.9408C46.7867 16.0156 46.7095 15.9441 46.7095 15.8011V15.6624C46.6045 15.7941 46.4915 15.8915 46.371 15.9546C46.2504 16.0177 46.125 16.0492 45.9946 16.0492C45.9035 16.0492 45.8208 16.031 45.7465 15.9946C45.6722 15.9581 45.6107 15.9042 45.5609 15.8334C45.5111 15.7626 45.4754 15.6757 45.4544 15.5727C45.4332 15.4697 45.4312 15.352 45.4481 15.2188L45.6121 13.8354H46.2639H46.2638ZM46.6528 13.2656C46.6977 13.2656 46.7348 13.2607 46.7643 13.2508C46.7937 13.2411 46.8175 13.2242 46.8357 13.2005C46.854 13.1767 46.8687 13.1443 46.8792 13.1045C46.8897 13.0645 46.8981 13.0141 46.9051 12.9524H47.2606C47.2816 12.9524 47.2991 12.9573 47.3123 12.9678C47.3256 12.9782 47.3361 12.9915 47.3446 13.0078C47.353 13.0239 47.3586 13.0421 47.3607 13.0623C47.3628 13.0827 47.3621 13.1037 47.3594 13.1247C47.351 13.1991 47.3264 13.2649 47.2858 13.323C47.2451 13.3812 47.1919 13.431 47.126 13.4723C47.0601 13.5137 46.9837 13.5452 46.8961 13.5669C46.8085 13.5887 46.7139 13.5998 46.613 13.5998C46.512 13.5998 46.4203 13.5887 46.3375 13.5669C46.2549 13.5452 46.1854 13.5137 46.1294 13.4723C46.0733 13.431 46.0313 13.3812 46.0033 13.323C45.9753 13.2649 45.9655 13.199 45.9738 13.1247C45.9767 13.1037 45.9822 13.0827 45.99 13.0623C45.9977 13.042 46.0075 13.0238 46.0194 13.0078C46.0314 12.9915 46.0454 12.9782 46.0615 12.9678C46.0776 12.9573 46.095 12.9524 46.1148 12.9524H46.4722C46.4651 13.0141 46.4624 13.0645 46.4638 13.1045C46.4651 13.1444 46.4729 13.1767 46.4862 13.2005C46.4995 13.2242 46.5191 13.2411 46.5457 13.2508C46.5724 13.2607 46.6081 13.2656 46.653 13.2656H46.6528ZM52.8311 13.8354L52.5956 15.776L52.6229 15.5637H52.993L52.745 16.554C52.7379 16.6072 52.7155 16.65 52.6777 16.6829C52.6399 16.7158 52.5957 16.7327 52.5451 16.7327H52.15L52.3644 16.0157H52.2341C52.0799 16.0157 52.0027 15.9442 52.0027 15.8012V15.6625C51.8977 15.7942 51.7847 15.8916 51.6642 15.9547C51.5436 16.0178 51.4182 16.0493 51.2878 16.0493C51.1968 16.0493 51.114 16.0311 51.0398 15.9947C50.9654 15.9582 50.9039 15.9043 50.8541 15.8335C50.8043 15.7627 50.7686 15.6758 50.7476 15.5728C50.7265 15.4697 50.7244 15.3521 50.7413 15.2188L50.9054 13.8355H51.5571L51.3931 15.2188C51.386 15.2777 51.384 15.3275 51.386 15.3681C51.3881 15.4088 51.3951 15.441 51.4078 15.4655C51.4204 15.4902 51.438 15.5076 51.4596 15.5182C51.4814 15.5286 51.508 15.5343 51.5402 15.5343C51.5837 15.5343 51.6299 15.521 51.6783 15.4951C51.7267 15.4691 51.7729 15.4327 51.8178 15.3856C51.8626 15.3388 51.9046 15.2819 51.9432 15.2146C51.9818 15.1473 52.0133 15.0724 52.0385 14.9898L52.1794 13.8355H52.8312L52.8311 13.8354ZM56.3121 14.3715C56.3121 14.471 56.2925 14.5621 56.2532 14.6448C56.214 14.7274 56.146 14.8004 56.0485 14.8642C55.9511 14.928 55.8201 14.9825 55.6553 15.0274C55.4906 15.0723 55.2832 15.1073 55.0336 15.1325C55.0365 15.2811 55.0694 15.3897 55.1318 15.4584C55.1942 15.5271 55.286 15.5614 55.408 15.5614C55.4655 15.5614 55.5152 15.5565 55.5572 15.5467C55.5992 15.5369 55.6365 15.5243 55.668 15.509C55.6995 15.4936 55.7275 15.4774 55.7528 15.4606C55.778 15.4437 55.8025 15.4277 55.8256 15.4122C55.8487 15.3967 55.8727 15.3842 55.8978 15.3743C55.9231 15.3645 55.9518 15.3596 55.984 15.3596C56.005 15.3596 56.0253 15.3645 56.045 15.375C56.0646 15.3855 56.0821 15.3996 56.0976 15.4164L56.2658 15.6119C56.1887 15.6876 56.1138 15.7528 56.0402 15.8081C55.9667 15.8635 55.891 15.9091 55.8131 15.9448C55.7353 15.9806 55.6526 16.0072 55.565 16.0241C55.4774 16.0409 55.3814 16.0493 55.2777 16.0493C55.1487 16.0493 55.0303 16.0269 54.9224 15.9828C54.8145 15.9386 54.722 15.8762 54.6442 15.7956C54.5664 15.715 54.5061 15.6182 54.4634 15.5048C54.4206 15.3912 54.399 15.265 54.399 15.1262C54.399 15.0099 54.4123 14.8964 54.4382 14.7856C54.4642 14.6749 54.5013 14.5705 54.5497 14.473C54.598 14.3756 54.6569 14.2859 54.727 14.2039C54.7972 14.122 54.8763 14.0518 54.9639 13.993C55.0516 13.9342 55.1475 13.8879 55.2519 13.8549C55.3563 13.822 55.4671 13.8058 55.5848 13.8058C55.7012 13.8058 55.8049 13.8227 55.8952 13.8563C55.9856 13.8899 56.0613 13.9334 56.1231 13.9873C56.1847 14.0413 56.2316 14.1023 56.2638 14.1696C56.2961 14.2368 56.3122 14.3041 56.3122 14.3714L56.3121 14.3715ZM55.5468 14.2454C55.4388 14.2454 55.3442 14.2881 55.2628 14.3743C55.1815 14.4605 55.1205 14.579 55.0799 14.7289C55.2159 14.7079 55.3259 14.6855 55.41 14.6624C55.4941 14.6392 55.5593 14.614 55.6056 14.5867C55.6518 14.5593 55.6833 14.5299 55.6995 14.4984C55.7157 14.4668 55.7233 14.4331 55.7233 14.3966C55.7233 14.3602 55.7093 14.3259 55.6813 14.2936C55.6533 14.2615 55.6084 14.2453 55.5468 14.2453V14.2454ZM59.9085 13.8354L59.6478 16.0156H58.996L59.1032 15.1094H58.4998L58.3926 16.0156H57.7408L58.0014 13.8354H58.6533L58.5544 14.6575H59.1579L59.2567 13.8354H59.9085ZM61.31 16.0156L61.5749 13.8354H61.9113C61.9786 13.8354 62.0311 13.8507 62.069 13.8822C62.1067 13.9138 62.1257 13.9657 62.1257 14.0372V14.1655C62.2183 14.0421 62.3157 13.9503 62.418 13.8906C62.5203 13.8312 62.6276 13.8016 62.7397 13.8016C62.8629 13.8016 62.9653 13.8416 63.0467 13.9215C63.128 14.0015 63.1798 14.1178 63.2023 14.2705C63.2991 14.1094 63.4048 13.9908 63.5197 13.9153C63.6348 13.8396 63.7644 13.8017 63.9087 13.8017C63.9998 13.8017 64.0819 13.8199 64.1547 13.8564C64.2276 13.8928 64.288 13.9461 64.3355 14.0162C64.3832 14.0863 64.4168 14.1725 64.4357 14.2755C64.4546 14.3785 64.4554 14.4971 64.4386 14.6301L64.2746 16.0157H63.6312L63.7952 14.6301C63.8022 14.5712 63.805 14.5215 63.8029 14.4808C63.8008 14.4402 63.7945 14.4081 63.784 14.3841C63.7735 14.3603 63.758 14.3428 63.7384 14.3324C63.7189 14.3218 63.6958 14.3168 63.669 14.3168C63.6256 14.3168 63.5842 14.3281 63.5443 14.3512C63.5043 14.3743 63.4665 14.4081 63.4307 14.4522C63.395 14.4964 63.3621 14.5496 63.3326 14.612C63.3032 14.6744 63.2773 14.7445 63.2549 14.8216L63.1139 16.0158H62.4706L62.6346 14.6302C62.6417 14.5713 62.6444 14.5216 62.6423 14.4809C62.6403 14.4403 62.6339 14.4081 62.6235 14.3842C62.6129 14.3604 62.5974 14.3429 62.5779 14.3324C62.5583 14.3219 62.535 14.3169 62.5084 14.3169C62.465 14.3169 62.4229 14.3289 62.3824 14.3527C62.3417 14.3765 62.3038 14.4109 62.268 14.4557C62.2323 14.5006 62.1994 14.5545 62.1699 14.6183C62.1405 14.682 62.1145 14.7535 62.0921 14.8321L61.9491 16.0157H61.31V16.0156ZM65.8359 16.7074L66.1849 13.8354H66.5213C66.5886 13.8354 66.6411 13.8507 66.679 13.8822C66.7167 13.9138 66.7357 13.9657 66.7357 14.0372V14.2348C66.8353 14.1003 66.946 13.9943 67.068 13.9173C67.1898 13.8403 67.3202 13.8016 67.4589 13.8016C67.5486 13.8016 67.6306 13.817 67.7049 13.8487C67.7793 13.8802 67.8437 13.93 67.8977 13.9973C67.9516 14.0645 67.9937 14.15 68.0238 14.2544C68.0539 14.3588 68.0687 14.4835 68.0687 14.6279C68.0687 14.8185 68.0399 14.9994 67.9818 15.171C67.9236 15.3427 67.8451 15.4941 67.7471 15.6244C67.649 15.7548 67.5361 15.8578 67.4079 15.9342C67.2795 16.0106 67.145 16.0491 67.0049 16.0491C66.9138 16.0491 66.8324 16.0344 66.7609 16.005C66.6894 15.9756 66.6263 15.9363 66.5717 15.8872L66.4707 16.7072H65.8358L65.8359 16.7074ZM67.1983 14.2958C67.1534 14.2958 67.1064 14.3126 67.0573 14.3469C67.0083 14.3813 66.9614 14.4282 66.9158 14.4877C66.8702 14.5473 66.8275 14.6174 66.7875 14.6973C66.7475 14.7772 66.7139 14.8627 66.6873 14.9538L66.622 15.4794C66.6627 15.5116 66.7082 15.5347 66.758 15.5488C66.8077 15.5629 66.8547 15.5699 66.8995 15.5699C66.9753 15.5699 67.0454 15.5446 67.1092 15.4942C67.1729 15.4437 67.2275 15.3771 67.2739 15.2951C67.3201 15.2131 67.3565 15.1199 67.3825 15.0147C67.4085 14.9097 67.4211 14.8023 67.4211 14.693C67.4211 14.5542 67.4007 14.4533 67.3601 14.3902C67.3195 14.3272 67.2655 14.2956 67.1982 14.2956L67.1983 14.2958Z" fill="#FEFEFE"/>
</svg>
