<?xml version="1.0" encoding="utf-8"?>
<!-- Generator: Adobe Illustrator 22.0.1, SVG Export Plug-In . SVG Version: 6.00 Build 0)  -->
<svg version="1.1" id="Layer_1" xmlns="http://www.w3.org/2000/svg" xmlns:xlink="http://www.w3.org/1999/xlink" x="0px" y="0px"
	 viewBox="0 0 337.6 65" style="enable-background:new 0 0 337.6 65;" xml:space="preserve">
<style type="text/css">
	.st0{fill-rule:evenodd;clip-rule:evenodd;fill:#FFFFFF;}
</style>
<g>
	<path class="st0" d="M222.5,35.8c0.2,1.3,0.3,2.3,0.6,3.3c2.2,9.3,9.5,15.5,19,16.3c8.4,0.7,15-2.5,19.9-9.4
		c2.4-3.3,6.3-3.9,9.4-1.2c1.8,1.5,2,3.5,0.6,5.4c-0.8,1-1.5,2-2.3,3.1c-3.2,4.4-7.4,7.4-12.6,9.2c-8.4,2.9-16.8,3.3-25.1,0.2
		c-11.2-4.1-17.8-12.3-19.7-24c-1.1-7.2-0.4-14.4,2.9-20.9c4.8-9.3,12.3-15,22.7-16.7c6.9-1.1,13.7-0.4,20.1,2.7
		c9.1,4.3,14.6,11.6,16.7,21.3c0.6,2.7,0.8,5.4,1,8.1c0.2,1.7-0.6,2.4-2.3,2.5c-0.8,0-1.5,0-2.3,0c-15.5,0-31,0-46.4,0
		C224,35.8,223.5,35.8,222.5,35.8L222.5,35.8L222.5,35.8z M264.8,25.6c-1.3-8.7-11.8-16.3-21.5-15.7c-10.1,0.6-20.1,8.3-20.5,15.7
		C236.7,25.6,250.8,25.6,264.8,25.6L264.8,25.6z"/>
	<path class="st0" d="M143.1,35.5c0.1,0.9,0.2,1.5,0.3,2.2c1.9,10.3,10.3,17.4,20.7,17.6c7.9,0.1,14-3.1,18.6-9.5
		c2.4-3.4,6.7-3.8,9.7-0.8c1.4,1.5,1.7,3.3,0.3,5.1c-0.6,0.9-1.2,1.7-1.9,2.4c-3.4,5-8.1,8.2-13.8,10.1c-8.4,2.8-16.8,3-24.9-0.2
		c-11.6-4.5-18.1-13.4-19.5-25.8c-0.7-6-0.1-11.8,2.4-17.3C139.9,8.9,147.8,2.5,159.3,1c6.1-0.8,12.2-0.3,17.8,2
		c10.2,4.2,16.1,12.1,18.4,22.8c0.4,2.4,0.7,5,0.8,7.4c0.1,2-0.3,2.4-2.4,2.4c-3.6,0-7.4,0-11.1,0c-12.4,0-24.8,0-37,0
		C144.9,35.5,144.1,35.5,143.1,35.5L143.1,35.5z M185.6,25.3c-1.3-8.6-11.5-15.9-21.5-15.7c-9.7,0.2-19.8,8-20.6,15.7
		C157.5,25.3,171.4,25.3,185.6,25.3L185.6,25.3L185.6,25.3z"/>
	<path class="st0" d="M317.1,40.1c0.8,0.7,1.2,1.1,1.7,1.5c5.4,4.6,10.8,9.2,16.1,13.8c0.3,0.3,0.8,0.7,1.1,1c2,2,2.2,4.9,0.3,6.9
		c-1.8,2-4.6,2.3-6.7,0.6c-3.8-3.1-7.4-6.3-11.1-9.4c-5.3-4.5-10.5-9-15.8-13.5c-0.4-0.4-1-0.8-1.8-1.4c0,1.1-0.1,1.8-0.1,2.5
		c0,12.7,0,3.2,0,15.9c0,0.6,0,1.2,0,1.8c-0.2,2.8-2.3,4.8-5.1,4.6c-2.7-0.1-4.5-2.1-4.6-4.9c0-0.6,0-1.2,0-1.8c0-25.1,0-28,0-53.1
		c0-0.8,0-1.5,0-2.3c0-1.8,0.2-2.1,1.9-2.1c2.3-0.1,4.6-0.1,6.9-0.1c5.5,0,11.2,0.2,16.7-0.1c9.3-0.4,19.7,7.1,20.7,18
		c0.9,9.8-5.8,19.1-15.8,21.1C320.2,39.4,318.8,39.8,317.1,40.1L317.1,40.1L317.1,40.1z M300.2,32.4c0.6,0.1,1,0.1,1.3,0.1
		c4.6,0,9.3,0,13.9,0c1.3,0,2.7-0.1,4-0.6c4.3-1.3,7.7-3.9,8.8-8.5c1.9-7.9-4-15.1-12.1-15.1c-4.8,0-9.5,0-14.4,0
		c-0.6,0-1.1,0.1-1.7,0.1C300.2,16.4,300.2,24.3,300.2,32.4L300.2,32.4L300.2,32.4z"/>
	<path class="st0" d="M107.1,35.6c-9.2,0-18.1,0-27.2,0c0,0.8-0.1,1.5-0.1,2.2c0,7,0,13.9,0,20.9c0,0.9,0,1.8-0.2,2.5
		c-0.7,2.1-2.9,3.4-5,3.3c-2.3-0.2-4.2-2-4.5-4.3c-0.1-0.6,0-1.1,0-1.7c0-24.9-0.1-27.9-0.1-52.7c0-1,0.1-2,0.4-2.9
		c0.8-2.1,3-3.3,5.3-3c2.1,0.3,3.9,2.1,4.1,4.3c0.1,0.7,0,1.3,0,2c0,12.8,0.1,3.7,0.1,16.5c0,0.8,0.1,1.5,0.1,2.2
		c1.7,0.4,25.3,0.4,27.1,0c0-0.6,0.1-1.2,0.1-1.9c0-5.6,0-11.3,0-16.9c0-0.6,0-1.1,0-1.7c0.2-2.5,2.1-4.4,4.6-4.5
		c2.5-0.1,4.8,1.8,5.1,4.3c0.1,0.6,0,1.1,0,1.7c0,17.5,0,34.9,0,52.4c0,0.6,0,1.1,0,1.7c-0.3,2.5-2.5,4.5-5,4.4
		c-2.5-0.1-4.5-2.1-4.8-4.6c0-0.6,0-1.1,0-1.7c0-6.7,0-13.6,0-20.3C107.1,37.2,107.1,36.5,107.1,35.6L107.1,35.6L107.1,35.6z"/>
	<path class="st0" d="M27.5,64.9c-6.5-0.1-12.6-1.5-18.2-4.9c-2.4-1.4-4.6-3.2-6.4-5.3c-0.9-1.1-2-2.2-2.4-3.6
		c-0.6-1.8-0.7-3.8,1-5.4c1.9-1.8,4.5-2.5,7.1-0.8c2.5,1.8,3.7,4.1,5.8,6.2c3,3,6.9,4.6,11.1,5.1c3.9,0.4,7.7,0.3,11.5-1
		c1.5-0.6,3.1-1.3,4.4-2.3c2.4-2.7,3.1-6.5,0.2-9.1c-1.4-1.2-3.2-2.1-5-2.9c-4.4-1.9-9-3.2-13.6-4.4c-3.8-0.9-7.4-2.1-11.2-3.2
		c-1.4-0.4-2.8-1.2-4.1-1.9c-3.5-1.9-5.5-4.9-6.1-8.7c-1.1-7.9,1.8-15,8.7-18.5c10.8-5.3,22-4.8,32.8,1.3c2,1.1,3.9,2.8,5.6,4.3
		c1.3,1.1,2.3,2.7,2.8,4.4c0.5,2.1-0.5,4.3-3.1,4.9c-2.2,0.5-4.2-0.2-5.8-1.9c-0.3-0.3-0.6-0.7-0.8-1c-2.5-3.8-6.2-5.9-10.6-6.7
		c-4.4-0.8-8.8-0.7-13,1c-1.5,0.6-3.1,1.4-4.3,2.5c-1.8,2.4-2.5,5.6-0.1,8.6c1.9,1.8,4.1,2.8,6.5,3.3c5.3,1.3,10.7,2.7,16,4
		c3.4,0.9,6.7,2,9.8,3.8c4,2.1,6.9,5.2,7.9,9.7c1.2,5.5,0,10.7-4.3,14.7c-4.9,4.4-10.5,6.8-17,7.5C30.9,64.8,29.1,64.8,27.5,64.9
		L27.5,64.9L27.5,64.9z"/>
</g>
</svg>
