<svg width="845" height="237" viewBox="0 0 845 237" fill="none" xmlns="http://www.w3.org/2000/svg">
<path fill-rule="evenodd" clip-rule="evenodd" d="M639.175 136.614C639.606 139.199 639.821 141.137 640.252 143.076C644.56 161.169 658.776 173.231 677.3 174.739C693.67 176.031 706.593 169.784 716.071 156.43C720.809 149.968 728.348 148.891 734.379 154.061C737.825 157.076 738.256 160.953 735.456 164.615C733.948 166.553 732.441 168.492 730.933 170.646C724.687 179.262 716.502 185.078 706.378 188.524C690.008 194.124 673.639 194.986 657.484 188.955C635.729 180.985 622.806 165.046 619.144 142.214C616.99 128.214 618.283 114.213 624.744 101.505C634.006 83.4115 648.653 72.2114 668.9 68.9805C682.254 66.8265 695.608 68.1192 708.102 74.1499C725.764 82.5502 736.534 96.7662 740.626 115.721C741.703 120.89 742.134 126.275 742.564 131.445C742.995 134.676 741.487 136.183 738.041 136.399C736.534 136.399 735.026 136.399 733.518 136.399C703.363 136.399 673.208 136.399 643.053 136.399C642.19 136.614 641.114 136.614 639.175 136.614V136.614ZM721.671 116.798C719.086 99.7815 698.624 85.1348 679.884 86.2118C660.283 87.2888 640.682 102.366 640.037 116.798C666.961 116.798 694.316 116.798 721.671 116.798Z" fill="white"/>
<path fill-rule="evenodd" clip-rule="evenodd" d="M504.123 136.183C504.339 137.906 504.554 139.199 504.77 140.491C508.432 160.523 524.801 174.308 545.049 174.739C560.342 174.954 572.404 168.708 581.235 156.215C585.973 149.538 594.374 148.892 600.189 154.707C602.99 157.723 603.42 161.169 600.836 164.615C599.759 166.338 598.466 167.846 597.174 169.354C590.497 179.047 581.45 185.293 570.25 188.955C553.88 194.34 537.51 194.771 521.786 188.524C499.17 179.693 486.461 162.461 483.877 138.337C482.584 126.706 483.661 115.29 488.615 104.736C497.877 84.4885 513.17 71.9958 535.571 68.9805C547.418 67.4728 559.265 68.3342 570.25 72.8577C590.066 81.0425 601.697 96.3354 606.005 117.229C606.866 121.968 607.298 126.922 607.513 131.661C607.728 135.538 606.866 136.399 602.774 136.399C595.666 136.399 588.342 136.399 581.235 136.399C557.111 136.399 532.987 136.399 509.078 136.399C507.569 136.183 506.062 136.183 504.123 136.183L504.123 136.183ZM586.835 116.367C584.25 99.5658 564.434 85.3498 545.048 85.7806C526.094 86.2113 506.493 101.289 504.985 116.367C532.125 116.367 559.264 116.367 586.835 116.367Z" fill="white"/>
<path fill-rule="evenodd" clip-rule="evenodd" d="M804.383 145.66C805.891 146.953 806.753 147.814 807.614 148.676C818.168 157.722 828.723 166.553 839.061 175.6C839.708 176.246 840.569 176.893 841.215 177.538C845.093 181.416 845.523 187.016 841.862 190.893C838.416 194.77 832.815 195.416 828.723 191.97C821.399 185.939 814.291 179.693 807.183 173.662C796.845 164.831 786.721 156.215 776.382 147.384C775.521 146.522 774.444 145.876 772.936 144.583C772.936 146.737 772.72 148.029 772.72 149.538C772.72 174.308 772.72 199.078 772.72 223.849C772.72 224.926 772.72 226.218 772.72 227.295C772.289 232.68 768.197 236.556 762.812 236.341C757.643 236.126 753.981 232.249 753.766 226.864C753.766 225.787 753.766 224.494 753.766 223.418C753.766 174.524 753.766 125.629 753.766 76.7344C753.766 75.2267 753.766 73.719 753.766 72.2113C753.766 68.7653 754.196 68.119 757.427 68.119C761.95 67.9034 766.474 67.9034 770.782 67.9034C781.552 67.9034 792.537 68.3341 803.306 67.6877C821.399 66.8264 841.646 81.4731 843.585 102.797C845.308 121.967 832.384 140.06 812.784 143.937C810.415 144.368 807.829 145.014 804.383 145.66H804.383ZM771.428 130.583C772.505 130.799 773.366 130.799 774.013 130.799C783.059 130.799 792.106 130.799 801.152 130.799C803.737 130.799 806.321 130.583 808.906 129.722C817.306 127.137 823.983 122.183 826.137 113.136C829.799 97.843 818.383 83.627 802.66 83.627C793.398 83.627 784.136 83.627 774.658 83.627C773.581 83.627 772.504 83.8426 771.427 83.8426C771.428 99.5658 771.428 114.859 771.428 130.583V130.583Z" fill="white"/>
<path fill-rule="evenodd" clip-rule="evenodd" d="M452.645 136.829C434.768 136.829 417.321 136.829 399.659 136.829C399.659 138.337 399.443 139.845 399.443 141.137C399.443 154.707 399.443 168.277 399.443 181.847C399.443 183.57 399.443 185.293 399.012 186.801C397.72 190.894 393.412 193.478 389.319 193.263C384.796 192.832 381.135 189.386 380.488 184.863C380.273 183.786 380.488 182.709 380.488 181.632C380.488 133.168 380.488 84.7045 380.488 36.4565C380.488 34.5181 380.704 32.5793 381.35 30.8564C382.857 26.7641 387.166 24.3945 391.688 25.0408C395.781 25.6872 399.227 29.1333 399.658 33.4411C399.874 34.7337 399.658 36.0258 399.658 37.3184C399.658 62.3043 399.658 87.0746 399.658 112.06C399.658 113.568 399.874 115.075 399.874 116.368C403.105 117.229 449.199 117.229 452.645 116.368C452.645 115.291 452.861 113.999 452.861 112.706C452.861 101.721 452.861 90.7364 452.861 79.7513C452.861 78.6743 452.861 77.5973 452.861 76.5202C453.292 71.566 456.953 67.9043 461.908 67.6892C466.862 67.4737 471.169 71.1353 471.816 76.0896C472.031 77.1666 471.816 78.2436 471.816 79.3206C471.816 113.353 471.816 147.385 471.816 181.417C471.816 182.494 471.816 183.571 471.816 184.648C471.169 189.602 466.861 193.479 462.123 193.264C457.168 193.049 453.292 189.172 452.861 184.218C452.861 183.141 452.861 182.063 452.861 180.986C452.861 167.847 452.861 154.493 452.861 141.354C452.645 140.06 452.645 138.552 452.645 136.829H452.645Z" fill="white"/>
<path fill-rule="evenodd" clip-rule="evenodd" d="M315.869 193.693C303.161 193.478 291.314 190.678 280.329 184.216C275.59 181.416 271.282 177.97 267.836 173.877C266.113 171.723 264.39 169.354 263.097 166.769C260.943 162.677 261.805 159.446 265.036 156.215C268.697 152.769 273.867 151.261 278.821 154.707C281.191 156.43 283.344 158.584 285.283 160.738C287.221 162.677 288.729 164.831 290.668 166.77C296.484 172.585 303.591 175.816 311.777 176.678C319.315 177.539 326.854 177.324 334.177 174.739C337.193 173.662 340.208 172.154 342.793 170.216C349.04 165.477 349.255 157.508 343.224 152.554C340.424 150.185 336.977 148.462 333.531 146.954C324.915 143.292 316.084 140.708 307.037 138.338C299.714 136.615 292.606 134.246 285.282 132.092C282.482 131.23 279.897 129.722 277.313 128.43C270.42 124.768 266.543 118.953 265.466 111.414C263.312 96.1207 269.127 83.8431 282.913 77.1661C304.021 66.8274 325.345 65.9655 346.239 78.0275C350.116 80.1815 353.778 83.4123 357.224 86.4278C359.808 88.5818 361.532 91.8127 362.609 95.0437C364.332 100.644 361.532 103.444 356.577 104.521C352.269 105.382 348.393 104.09 345.377 100.859C344.73 100.213 344.3 99.5667 343.869 98.9209C338.915 91.5977 331.807 87.5052 323.191 85.7819C314.575 84.2742 305.96 84.4893 297.774 87.7203C294.759 88.7973 291.743 90.5206 289.374 92.6746C283.558 97.6287 283.558 104.306 289.159 109.475C292.82 112.921 297.128 114.86 301.867 115.937C312.206 118.522 322.76 121.107 333.099 123.691C339.776 125.415 346.238 127.568 352.269 131.014C360.023 135.107 365.624 141.138 367.562 149.969C369.932 160.739 367.562 170.216 359.162 177.971C349.685 186.586 338.7 191.54 325.991 193.048C322.546 193.263 319.1 193.478 315.869 193.693L315.869 193.693Z" fill="white"/>
<path fill-rule="evenodd" clip-rule="evenodd" d="M124.598 26.7631C125.46 22.4551 126.106 18.7935 126.752 14.9162C134.506 14.2699 156.908 24.8242 169.4 35.3785C191.155 53.6869 203.864 76.9495 206.233 105.166C211.618 163.754 169.185 211.355 115.552 217.602C57.3952 224.279 6.99317 182.708 0.74692 126.921C-6.14575 67.9029 35.8565 24.3935 77.6425 15.1317C78.2888 19.2241 78.9351 23.1013 79.7965 27.4093C78.0732 28.0557 76.7811 28.4864 75.2735 28.9171C41.0258 41.1941 20.5634 65.103 13.8858 100.858C11.7319 112.49 12.3782 124.121 15.1785 135.752C15.6092 137.691 16.4711 139.198 17.9788 140.491C29.6101 151.476 43.1798 159.015 58.2577 164.184C76.3509 170.431 94.8744 172.369 113.83 171.077C136.23 169.569 157.339 163.107 176.294 150.615C180.386 147.814 184.263 144.368 188.356 141.353C190.294 139.845 191.156 138.122 191.802 135.753C198.264 104.09 190.94 76.3041 168.97 52.6108C157.769 40.5488 143.769 32.3635 127.829 28.0561C126.537 27.4089 125.675 27.1937 124.598 26.763L124.598 26.7631ZM21.4246 152.122C32.1946 179.047 64.7188 209.202 112.106 205.109C132.568 203.171 150.446 194.986 165.523 180.77C174.785 171.938 184.478 158.153 185.124 152.122C160.785 170.646 133.43 179.261 103.274 179.261C73.1192 179.262 45.5485 170.431 21.4245 152.122H21.4246Z" fill="white"/>
<path fill-rule="evenodd" clip-rule="evenodd" d="M102.198 0.0539232C106.506 0.0539232 110.814 0.269551 114.906 0.0539232C121.368 -0.376768 123.522 4.57703 122.66 9.31568C122.014 13.6237 121.153 17.9317 120.506 22.2391C119.645 27.4085 118.568 32.3628 117.922 37.5321C117.06 43.1322 114.26 45.0711 109.306 44.8554C104.351 44.6398 99.3978 44.8554 94.4434 44.8554C89.4891 44.8554 87.3352 43.1321 86.4738 38.1783C85.1812 30.6394 83.8891 23.1009 82.5965 15.562C82.1659 13.408 81.7352 11.254 81.5195 8.88489C80.8732 3.71556 83.6736 0.268987 88.8429 0.268987C93.1513 -0.161234 97.6744 0.0539232 102.198 0.0539232V0.0539232Z" fill="white"/>
<path fill-rule="evenodd" clip-rule="evenodd" d="M120.075 91.8118C120.075 76.7344 132.137 64.6724 147.215 64.6724C162.292 64.6724 174.57 76.7344 174.57 91.8118C174.57 107.105 162.292 119.382 147.215 119.167C131.922 118.952 120.075 106.889 120.075 91.8118V91.8118ZM126.968 91.3811C126.752 102.797 136.014 112.059 147.215 112.274C158.2 112.274 167.677 103.228 167.677 92.0269C167.893 80.6112 158.631 71.3489 147.43 71.3489C136.23 71.3494 126.968 80.3961 126.968 91.3811V91.3811Z" fill="white"/>
<path fill-rule="evenodd" clip-rule="evenodd" d="M59.5494 120.029C44.472 120.029 32.1944 107.751 32.41 92.6737C32.41 77.3807 44.6877 65.5343 59.9806 65.3187C72.2582 65.3187 86.9049 74.796 86.9049 92.4581C87.1195 110.766 72.0421 120.459 59.5494 120.029V120.029ZM59.9801 113.136C71.1807 113.136 80.2273 103.874 80.2273 92.8889C80.2273 81.6882 70.9656 72.4265 59.5494 72.4265C48.5644 72.4265 39.3021 81.9039 39.3021 92.8889C39.3021 104.089 48.5644 113.136 59.9801 113.136V113.136Z" fill="white"/>
<path fill-rule="evenodd" clip-rule="evenodd" d="M147.43 81.6883C153.246 81.6883 157.554 85.7806 157.554 91.5962C157.554 97.4118 153.031 102.151 147.43 101.935C142.045 101.935 137.307 97.1962 137.307 91.8113C137.522 86.2117 141.83 81.9038 147.43 81.6882V81.6883Z" fill="white"/>
<path fill-rule="evenodd" clip-rule="evenodd" d="M59.9801 103.012C54.3799 103.012 49.8564 98.4894 49.8564 92.8889C49.8564 87.2887 54.3795 82.7653 59.9801 82.7653C65.5801 82.7653 70.3187 87.5039 70.1037 93.1039C70.1037 98.7044 65.7956 103.012 59.9801 103.012Z" fill="white"/>
</svg>
