<svg width="149" height="26" viewBox="0 0 149 26" fill="none" xmlns="http://www.w3.org/2000/svg">
<path d="M15.756 0.859999L11.642 17.52H11.574L7.596 0.859999H0.932L7.596 25H15.484L22.284 0.859999H15.756ZM31.0568 25V0.859999H24.7328V25H31.0568ZM34.6082 21.702L37.8042 16.908C40.4335 18.9933 42.7909 20.036 44.8762 20.036C45.7375 20.036 46.4175 19.8773 46.9162 19.56C47.4149 19.22 47.6642 18.7667 47.6642 18.2C47.6642 17.588 47.3695 17.112 46.7802 16.772C46.1909 16.4093 45.4542 16.0807 44.5702 15.786C43.6862 15.4913 42.7229 15.1853 41.6802 14.868C40.6375 14.5507 39.6742 14.12 38.7902 13.576C37.9062 13.032 37.1695 12.3293 36.5802 11.468C35.9909 10.6067 35.6962 9.48467 35.6962 8.102C35.6962 6.96867 35.9115 5.926 36.3422 4.974C36.7955 4.022 37.4075 3.206 38.1782 2.526C38.9715 1.846 39.9122 1.32467 41.0002 0.961999C42.0882 0.576666 43.2782 0.383999 44.5702 0.383999C46.1342 0.383999 47.6982 0.667332 49.2622 1.234C50.8262 1.778 52.3335 2.594 53.7842 3.682L50.5882 8.442C48.2309 6.69667 46.1909 5.824 44.4682 5.824C43.7202 5.824 43.1195 5.97133 42.6662 6.266C42.2355 6.56067 42.0202 6.96867 42.0202 7.49C42.0202 8.07933 42.3149 8.544 42.9042 8.884C43.4935 9.224 44.2302 9.53 45.1142 9.802C45.9982 10.074 46.9615 10.3687 48.0042 10.686C49.0469 11.0033 50.0102 11.434 50.8942 11.978C51.7782 12.522 52.5149 13.236 53.1042 14.12C53.6935 15.004 53.9882 16.1487 53.9882 17.554C53.9882 18.7327 53.7615 19.8093 53.3082 20.784C52.8775 21.736 52.2542 22.5633 51.4382 23.266C50.6222 23.9687 49.6475 24.5127 48.5142 24.898C47.3809 25.2833 46.1342 25.476 44.7742 25.476C43.0062 25.476 41.2609 25.1587 39.5382 24.524C37.8155 23.8667 36.1722 22.926 34.6082 21.702ZM62.3031 25L63.3231 20.988H70.7351L71.7551 25H78.4531L71.2791 0.859999H63.0511L55.7411 25H62.3031ZM67.0291 6.47H67.0971L69.5451 16.228H64.5131L67.0291 6.47ZM90.2272 25V0.859999H97.4352C99.1125 0.859999 100.62 1.14333 101.957 1.71C103.317 2.27667 104.473 3.08133 105.425 4.124C106.377 5.16667 107.102 6.436 107.601 7.932C108.122 9.40533 108.383 11.0713 108.383 12.93C108.383 14.7887 108.122 16.466 107.601 17.962C107.102 19.4353 106.377 20.6933 105.425 21.736C104.473 22.7787 103.317 23.5833 101.957 24.15C100.597 24.7167 99.0672 25 97.3672 25H90.2272ZM92.5392 2.968V22.892H97.3332C98.6705 22.892 99.8718 22.6653 100.937 22.212C102.025 21.736 102.943 21.0673 103.691 20.206C104.462 19.3447 105.051 18.302 105.459 17.078C105.867 15.8313 106.071 14.4373 106.071 12.896C106.071 11.3547 105.867 9.972 105.459 8.748C105.074 7.524 104.507 6.49267 103.759 5.654C103.011 4.79267 102.104 4.13533 101.039 3.682C99.9738 3.206 98.7725 2.968 97.4352 2.968H92.5392ZM113.202 25L115.208 19.22H126.7L128.706 25H131.222L122.484 0.859999H119.56L110.754 25H113.202ZM120.954 2.9H121.022L125.986 17.18H115.922L120.954 2.9ZM139.927 25V14.528L148.427 0.859999H145.877L138.771 12.488L131.733 0.859999H129.115L137.615 14.528V25H139.927Z" fill="white"/>
</svg>
