<svg width="25" height="25" viewBox="0 0 25 25" fill="none" xmlns="http://www.w3.org/2000/svg">
<path d="M12.5003 0C7.90542 0 4.16699 3.73843 4.16699 8.33335C4.16699 9.71274 4.51187 11.0804 5.16748 12.2935L12.0446 24.7314C12.1362 24.8973 12.3106 25 12.5003 25C12.69 25 12.8645 24.8973 12.9561 24.7314L19.8357 12.2894C20.4888 11.0804 20.8337 9.7127 20.8337 8.3333C20.8337 3.73843 17.0953 0 12.5003 0ZM12.5003 12.5C10.2029 12.5 8.33369 10.6308 8.33369 8.33335C8.33369 6.03589 10.2029 4.1667 12.5003 4.1667C14.7978 4.1667 16.667 6.03589 16.667 8.33335C16.667 10.6308 14.7978 12.5 12.5003 12.5Z" fill="#FF1709"/>
</svg>
