<svg width="27" height="27" viewBox="0 0 27 27" fill="none" xmlns="http://www.w3.org/2000/svg">
<g clip-path="url(#clip0)">
<path d="M24.502 13.6694C24.223 12.4572 23.2315 11.5631 22.038 11.43C19.2126 11.1143 16.3514 11.1128 13.5042 11.1143C10.6559 11.1128 7.79528 11.1143 4.96894 11.43C3.77612 11.5634 2.78517 12.4575 2.50647 13.6694C2.10926 15.3955 2.10449 17.2798 2.10449 19.0571C2.10449 20.8344 2.10449 22.7183 2.5017 24.4445C2.78041 25.6563 3.77135 26.5505 4.96478 26.6839C7.79052 26.9998 10.6511 27.001 13.4992 26.9998C16.3475 27.0013 19.2075 26.9998 22.0342 26.6839C23.227 26.5505 24.2185 25.6563 24.4972 24.4445C24.8942 22.7183 24.8962 20.8344 24.8962 19.0571C24.8959 17.2795 24.8989 15.3955 24.502 13.6694ZM8.60549 15.0073H6.9559V23.7727H5.42362V15.0073H3.80411V13.5715H8.60549V15.0073ZM12.7673 23.773H11.389V22.9438C10.8414 23.5714 10.3215 23.8775 9.81499 23.8775C9.37103 23.8775 9.06553 23.6977 8.92767 23.3127C8.85263 23.0828 8.80618 22.7189 8.80618 22.1824V16.1718H10.1833V21.7682C10.1833 22.091 10.1833 22.2586 10.1958 22.3039C10.2289 22.5177 10.3334 22.626 10.518 22.626C10.7943 22.626 11.0832 22.4131 11.3887 21.9811V16.1718H12.767L12.7673 23.773ZM17.9998 21.4916C17.9998 22.1946 17.9525 22.7011 17.8605 23.0233C17.6765 23.5887 17.3081 23.8775 16.7602 23.8775C16.2701 23.8775 15.7973 23.6054 15.3367 23.0367V23.7733H13.9595V13.5715H15.3367V16.9031C15.7815 16.3555 16.2538 16.0786 16.7602 16.0786C17.3081 16.0786 17.6767 16.3671 17.8605 16.9361C17.9531 17.2419 17.9998 17.7446 17.9998 18.4642V21.4916ZM23.1978 20.2234H20.4432V21.5708C20.4432 22.2744 20.6734 22.6257 21.1468 22.6257C21.486 22.6257 21.6834 22.4414 21.762 22.0734C21.7748 21.9987 21.793 21.6926 21.793 21.1402H23.1981V21.3412C23.1981 21.7852 23.1811 22.091 23.1686 22.2285C23.1225 22.5334 23.0141 22.8101 22.8471 23.0536C22.4656 23.6057 21.9005 23.8778 21.1811 23.8778C20.4605 23.8778 19.912 23.6185 19.5139 23.0995C19.2218 22.7189 19.0718 22.1198 19.0718 21.312V18.6498C19.0718 17.8372 19.2049 17.2428 19.4976 16.8587C19.8954 16.3385 20.4435 16.0795 21.1471 16.0795C21.8382 16.0795 22.3861 16.3385 22.772 16.8587C23.0605 17.2428 23.1984 17.8372 23.1984 18.6498V20.2234H23.1978Z" fill="#2262AA"/>
<path d="M21.1345 17.3186C20.6741 17.3186 20.4434 17.6702 20.4434 18.3729V19.0763H21.8205V18.3729C21.8202 17.6702 21.59 17.3186 21.1345 17.3186Z" fill="#2262AA"/>
<path d="M16.0234 17.3186C15.7965 17.3186 15.5666 17.4258 15.3364 17.6536V22.2864C15.5663 22.5169 15.7965 22.6258 16.0234 22.6258C16.4206 22.6258 16.6225 22.2864 16.6225 21.6001V18.3557C16.6225 17.6702 16.4206 17.3186 16.0234 17.3186Z" fill="#2262AA"/>
<path d="M16.7926 10.4137C17.3003 10.4137 17.8285 10.1052 18.3826 9.47039V10.3083H19.7747V2.62637H18.3826V8.4976C18.0741 8.93352 17.7817 9.1491 17.5033 9.1491C17.3169 9.1491 17.2074 9.03893 17.177 8.82306C17.16 8.7775 17.16 8.60807 17.16 8.28202V2.62637H15.7725V8.70068C15.7725 9.24319 15.8189 9.61033 15.8957 9.84288C16.0357 10.2321 16.3445 10.4137 16.7926 10.4137Z" fill="#2262AA"/>
<path d="M7.10211 6.13326V10.3082H8.6457V6.13326L10.5025 0H8.94167L7.8885 4.04805L6.79274 0H5.16846C5.49391 0.955512 5.83246 1.91579 6.15791 2.87219C6.65309 4.30978 6.96216 5.39363 7.10211 6.13326Z" fill="#2262AA"/>
<path d="M12.5715 10.4137C13.2688 10.4137 13.8107 10.1514 14.1952 9.6273C14.4873 9.24289 14.6272 8.63724 14.6272 7.82079V5.13082C14.6272 4.3096 14.4876 3.70931 14.1952 3.32133C13.8107 2.79579 13.2691 2.53346 12.5715 2.53346C11.8777 2.53346 11.3361 2.79579 10.9508 3.32133C10.6551 3.70931 10.5151 4.3096 10.5151 5.13082V7.82079C10.5151 8.63724 10.6551 9.24289 10.9508 9.6273C11.3358 10.1514 11.8777 10.4137 12.5715 10.4137ZM11.9072 4.85182C11.9072 4.14107 12.1227 3.78673 12.5715 3.78673C13.0202 3.78673 13.2352 4.14077 13.2352 4.85182V8.08311C13.2352 8.79387 13.0202 9.14939 12.5715 9.14939C12.1227 9.14939 11.9072 8.79387 11.9072 8.08311V4.85182Z" fill="#2262AA"/>
</g>
<defs>
<clipPath id="clip0">
<rect width="27" height="27" fill="white"/>
</clipPath>
</defs>
</svg>
