<svg width="23" height="27" viewBox="0 0 23 27" fill="none" xmlns="http://www.w3.org/2000/svg">
<path d="M22.502 13.6694C22.223 12.4572 21.2315 11.5631 20.038 11.43C17.2126 11.1143 14.3514 11.1128 11.5042 11.1143C8.65586 11.1128 5.79528 11.1143 2.96894 11.43C1.77612 11.5634 0.785172 12.4575 0.506468 13.6694C0.109256 15.3955 0.104492 17.2798 0.104492 19.0571C0.104492 20.8344 0.104492 22.7183 0.501704 24.4445C0.780408 25.6563 1.77135 26.5505 2.96478 26.6839C5.79052 26.9998 8.6511 27.001 11.4992 26.9998C14.3475 27.0013 17.2075 26.9998 20.0342 26.6839C21.227 26.5505 22.2185 25.6563 22.4972 24.4445C22.8942 22.7183 22.8962 20.8344 22.8962 19.0571C22.8959 17.2795 22.8989 15.3955 22.502 13.6694ZM6.60549 15.0073H4.9559V23.7727H3.42362V15.0073H1.80411V13.5715H6.60549V15.0073ZM10.7673 23.773H9.38895V22.9438C8.84137 23.5714 8.32148 23.8775 7.81499 23.8775C7.37103 23.8775 7.06553 23.6977 6.92767 23.3127C6.85263 23.0828 6.80618 22.7189 6.80618 22.1824V16.1718H8.18332V21.7682C8.18332 22.091 8.18332 22.2586 8.19583 22.3039C8.22888 22.5177 8.33339 22.626 8.518 22.626C8.79432 22.626 9.08315 22.4131 9.38865 21.9811V16.1718H10.767L10.7673 23.773ZM15.9998 21.4916C15.9998 22.1946 15.9525 22.7011 15.8605 23.0233C15.6765 23.5887 15.3081 23.8775 14.7602 23.8775C14.2701 23.8775 13.7973 23.6054 13.3367 23.0367V23.7733H11.9595V13.5715H13.3367V16.9031C13.7815 16.3555 14.2538 16.0786 14.7602 16.0786C15.3081 16.0786 15.6767 16.3671 15.8605 16.9361C15.9531 17.2419 15.9998 17.7446 15.9998 18.4642V21.4916ZM21.1978 20.2234H18.4432V21.5708C18.4432 22.2744 18.6734 22.6257 19.1468 22.6257C19.486 22.6257 19.6834 22.4414 19.762 22.0734C19.7748 21.9987 19.793 21.6926 19.793 21.1402H21.1981V21.3412C21.1981 21.7852 21.1811 22.091 21.1686 22.2285C21.1225 22.5334 21.0141 22.8101 20.8471 23.0536C20.4656 23.6057 19.9005 23.8778 19.1811 23.8778C18.4605 23.8778 17.912 23.6185 17.5139 23.0995C17.2218 22.7189 17.0718 22.1198 17.0718 21.312V18.6498C17.0718 17.8372 17.2049 17.2428 17.4976 16.8587C17.8954 16.3385 18.4435 16.0795 19.1471 16.0795C19.8382 16.0795 20.3861 16.3385 20.772 16.8587C21.0605 17.2428 21.1984 17.8372 21.1984 18.6498V20.2234H21.1978Z" fill="#273671"/>
<path d="M19.1345 17.3186C18.6741 17.3186 18.4434 17.6702 18.4434 18.3729V19.0763H19.8205V18.3729C19.8202 17.6702 19.59 17.3186 19.1345 17.3186Z" fill="#273671"/>
<path d="M14.0234 17.3186C13.7965 17.3186 13.5666 17.4258 13.3364 17.6536V22.2864C13.5663 22.5169 13.7965 22.6258 14.0234 22.6258C14.4206 22.6258 14.6225 22.2864 14.6225 21.6001V18.3557C14.6225 17.6702 14.4206 17.3186 14.0234 17.3186Z" fill="#273671"/>
<path d="M14.7926 10.4137C15.3003 10.4137 15.8285 10.1052 16.3826 9.47039V10.3083H17.7747V2.62637H16.3826V8.4976C16.0741 8.93352 15.7817 9.1491 15.5033 9.1491C15.3169 9.1491 15.2074 9.03893 15.177 8.82306C15.16 8.7775 15.16 8.60807 15.16 8.28202V2.62637H13.7725V8.70068C13.7725 9.24319 13.8189 9.61033 13.8957 9.84288C14.0357 10.2321 14.3445 10.4137 14.7926 10.4137Z" fill="#273671"/>
<path d="M5.10211 6.13326V10.3082H6.6457V6.13326L8.50253 0H6.94167L5.8885 4.04805L4.79274 0H3.16846C3.49391 0.955512 3.83246 1.91579 4.15791 2.87219C4.65309 4.30978 4.96216 5.39363 5.10211 6.13326Z" fill="#273671"/>
<path d="M10.5715 10.4137C11.2688 10.4137 11.8107 10.1514 12.1952 9.6273C12.4873 9.24289 12.6272 8.63724 12.6272 7.82079V5.13082C12.6272 4.3096 12.4876 3.70931 12.1952 3.32133C11.8107 2.79579 11.2691 2.53346 10.5715 2.53346C9.87769 2.53346 9.33606 2.79579 8.95076 3.32133C8.65508 3.70931 8.51514 4.3096 8.51514 5.13082V7.82079C8.51514 8.63724 8.65508 9.24289 8.95076 9.6273C9.33576 10.1514 9.87769 10.4137 10.5715 10.4137ZM9.90717 4.85182C9.90717 4.14107 10.1227 3.78673 10.5715 3.78673C11.0202 3.78673 11.2352 4.14077 11.2352 4.85182V8.08311C11.2352 8.79387 11.0202 9.14939 10.5715 9.14939C10.1227 9.14939 9.90717 8.79387 9.90717 8.08311V4.85182Z" fill="#273671"/>
</svg>
